<svg width="63" height="68" viewBox="0 0 63 68" fill="none" xmlns="http://www.w3.org/2000/svg">
<path d="M12.224 7.096V1.336H4.16V0.183996H13.376V5.944H15.104V0.183996H18.56V1.336H16.256V7.096H12.224ZM20.864 12.856V8.824H23.744V7.096H20.864V3.064H23.744V0.183996H27.776V8.824H29.504V3.064H33.536V8.824H41.6V9.976H32.384V4.216H30.656V9.976H26.624V1.336H24.896V4.216H22.016V5.944H24.896V9.976H22.016V11.704H24.32V12.856H20.864ZM30.08 1.336V0.183996H32.96V1.336H30.08ZM0.704 12.856V9.4H1.856V11.704H3.584V7.096H0.704V3.064H7.04V4.216H1.856V5.944H4.736V12.856H0.704ZM35.264 7.096V3.064H44.48V4.216H36.416V5.944H44.48V7.096H35.264ZM9.344 6.51999V3.64H10.496V6.51999H9.344ZM17.984 6.51999V3.64H19.136V6.51999H17.984ZM44.48 9.976V8.824H49.664V6.51999H50.816V9.976H44.48ZM6.464 27.256V18.616H3.584V14.584H9.344V12.856H6.464V8.824H13.376V11.704H15.104V8.824H19.136V15.736H15.68V14.584H17.984V9.976H16.256V12.856H12.224V9.976H7.616V11.704H10.496V15.736H4.736V17.464H7.616V26.104H9.344V23.224H12.224V15.16H13.376V24.376H10.496V27.256H6.464ZM46.784 35.896V30.136H38.144V26.104H41.6V27.256H39.296V28.984H47.936V34.744H49.664V20.344H52.544V15.736H49.664V11.704H56.576V17.464H58.304V15.16H59.456V18.616H55.424V12.856H50.816V14.584H53.696V21.496H50.816V35.896H46.784ZM38.144 24.376V21.496H32.384V12.856H27.776V18.616H23.744V15.736H22.016V20.344H24.32V21.496H20.864V14.584H24.896V17.464H26.624V11.704H33.536V20.344H39.296V23.224H41.024V20.344H43.904V14.584H46.784V12.856H36.416V15.16H35.264V11.704H47.936V15.736H45.056V21.496H42.176V24.376H38.144ZM38.144 18.616V14.584H41.6V15.736H39.296V17.464H41.6V18.616H38.144ZM0.704 18.04V15.16H1.856V18.04H0.704ZM29.504 18.04V15.16H30.656V18.04H29.504ZM17.984 35.32V31.864H23.744V24.376H22.016V30.136H15.104V26.104H17.984V21.496H15.104V17.464H18.56V18.616H16.256V20.344H19.136V27.256H16.256V28.984H20.864V23.224H24.896V33.016H19.136V35.32H17.984ZM46.784 20.92V17.464H50.24V18.616H47.936V20.92H46.784ZM9.344 20.92V18.04H10.496V20.92H9.344ZM0.704 33.016V20.344H4.736V28.984H7.04V30.136H3.584V21.496H1.856V31.864H4.16V33.016H0.704ZM58.304 24.376V21.496H56V20.344H59.456V23.224H61.76V24.376H58.304ZM43.904 26.68V23.224H47.936V26.68H46.784V24.376H45.056V26.68H43.904ZM52.544 38.776V23.224H56.576V34.744H59.456V37.624H61.184V33.016H58.304V26.104H62.336V29.56H61.184V27.256H59.456V31.864H62.336V38.776H58.304V35.896H55.424V24.376H53.696V37.624H56V38.776H52.544ZM9.344 47.416V44.536H0.704V40.504H6.464V38.776H3.584V34.744H6.464V31.864H9.344V28.984H13.376V31.864H16.256V38.776H12.224V35.896H10.496V40.504H19.136V43.384H20.864V40.504H23.744V35.896H22.016V38.776H18.56V37.624H20.864V34.744H24.896V41.656H22.016V44.536H17.984V41.656H9.344V34.744H13.376V37.624H15.104V33.016H12.224V30.136H10.496V33.016H7.616V35.896H4.736V37.624H7.616V41.656H1.856V43.384H10.496V46.264H15.104V44.536H12.8V43.384H16.256V47.416H9.344ZM29.504 53.176V50.296H23.744V43.96H24.896V49.144H30.656V52.024H32.384V49.144H35.264V46.264H38.144V31.864H45.056V35.32H43.904V33.016H39.296V47.416H36.416V50.296H33.536V53.176H29.504ZM0.704 38.2V35.32H1.856V38.2H0.704ZM41.024 38.776V35.32H42.176V37.624H50.24V38.776H41.024ZM55.424 47.416V41.656H45.056V44.536H41.024V41.08H42.176V43.384H43.904V40.504H56.576V46.264H61.184V41.656H59.456V43.96H58.304V40.504H62.336V47.416H55.424ZM52.544 49.72V47.416H49.664V43.384H53.12V44.536H50.816V46.264H53.696V49.72H52.544ZM43.904 56.056V46.84H45.056V54.904H46.784V43.96H47.936V56.056H43.904ZM20.864 56.056V50.296H17.984V46.264H21.44V47.416H19.136V49.144H22.016V54.904H23.744V52.024H27.776V55.48H26.624V53.176H24.896V56.056H20.864ZM20.864 67.576V64.696H12.224V58.936H0.704V54.904H3.584V46.264H7.616V52.024H9.344V49.144H13.376V54.904H15.104V52.024H19.136V57.784H22.016V60.664H23.744V57.784H27.776V66.424H43.904V61.816H42.176V64.696H35.264V61.816H29.504V57.784H35.264V54.904H38.144V53.176H35.84V52.024H39.296V56.056H36.416V58.936H30.656V60.664H36.416V63.544H41.024V60.664H45.056V67.576H26.624V58.936H24.896V61.816H20.864V58.936H17.984V53.176H16.256V56.056H12.224V50.296H10.496V53.176H6.464V47.416H4.736V56.056H1.856V57.784H13.376V63.544H22.016V66.424H23.744V64.12H24.896V67.576H20.864ZM41.024 52.6V46.84H42.176V52.6H41.024ZM0.704 49.72V46.84H1.856V49.72H0.704ZM58.304 55.48V50.296H56V49.144H59.456V55.48H58.304ZM46.784 64.696V57.784H50.24V58.936H47.936V63.544H49.664V60.664H52.544V57.784H55.424V53.176H50.816V54.904H53.12V56.056H49.664V52.024H56.576V58.936H53.696V61.816H50.816V64.696H46.784ZM7.04 56.056V54.904H9.92V56.056H7.04ZM30.08 56.056V54.904H32.96V56.056H30.08ZM41.024 58.936V55.48H42.176V57.784H44.48V58.936H41.024ZM38.144 61.24V58.36H39.296V61.24H38.144ZM9.344 67V64.696H6.464V60.664H9.92V61.816H7.616V63.544H10.496V67H9.344ZM15.68 61.816V60.664H18.56V61.816H15.68ZM0.704 64.696V61.24H1.856V63.544H3.584V61.24H4.736V64.696H0.704ZM30.08 64.696V63.544H32.96V64.696H30.08ZM1.28 67.576V66.424H7.04V67.576H1.28ZM12.8 67.576V66.424H18.56V67.576H12.8Z" fill="url(#paint0_linear_4_17)"/>
<defs>
<linearGradient id="paint0_linear_4_17" x1="57.5" y1="66" x2="6.5" y2="2" gradientUnits="userSpaceOnUse">
<stop stop-color="#FFFFF2"/>
<stop offset="1" stop-color="#00C49A"/>
</linearGradient>
</defs>
</svg>
