<svg width="437" height="60" viewBox="0 0 437 60" fill="none" xmlns="http://www.w3.org/2000/svg">
<path d="M43.584 60L54.144 0H79.68C88.064 0 93.952 1.504 97.344 4.512C100.8 7.456 102.528 12.128 102.528 18.528C102.528 21.856 102.144 25.696 101.376 30.048C100.16 36.96 98.368 42.624 96 47.04C93.696 51.456 90.4 54.72 86.112 56.832C81.888 58.944 76.224 60 69.12 60H43.584ZM50.4 4.32L9.792 0H51.168L50.4 4.32ZM48.864 13.536L8.16 9.216H49.536L48.864 13.536ZM64.512 44.64H72.096C74.208 44.64 75.936 44.384 77.28 43.872C78.688 43.36 79.616 41.92 80.064 39.552L83.424 20.448C83.488 20.128 83.52 19.872 83.52 19.68C83.52 19.424 83.52 19.168 83.52 18.912C83.52 17.248 82.912 16.256 81.696 15.936C80.544 15.552 79.04 15.36 77.184 15.36H69.6L64.512 44.64ZM47.232 22.752L6.528 18.432H48L47.232 22.752ZM45.6 31.968L4.896 27.648H46.368L45.6 31.968ZM43.968 41.184L3.264 36.864H44.736L43.968 41.184ZM42.336 50.4L1.632 46.08H43.104L42.336 50.4ZM40.704 59.712L0 55.392H41.472L40.704 59.712ZM124.803 60L135.363 0H164.163C168.323 0 171.587 0.639999 173.955 1.92C176.387 3.2 178.083 4.96 179.043 7.2C180.067 9.376 180.579 11.872 180.579 14.688C180.579 16.416 180.387 18.464 180.003 20.832C179.683 23.2 179.075 25.632 178.179 28.128C177.283 30.56 176.003 32.832 174.339 34.944C172.739 37.056 170.691 38.752 168.195 40.032L174.531 60H154.467L150.051 42.144H146.115L143.043 60H124.803ZM131.619 4.32L91.0107 0H132.387L131.619 4.32ZM129.987 13.536L89.3787 9.216H130.755L129.987 13.536ZM148.707 27.36H152.931C154.787 27.36 156.355 27.168 157.635 26.784C158.915 26.336 159.715 25.184 160.035 23.328C160.355 21.728 160.547 20.512 160.611 19.68C160.739 18.848 160.803 18.4 160.803 18.336C160.803 16.928 160.195 16.096 158.979 15.84C157.827 15.52 156.323 15.36 154.467 15.36H150.819L148.707 27.36ZM128.355 22.752L87.7467 18.432H129.123L128.355 22.752ZM126.723 31.968L86.1147 27.648H127.491L126.723 31.968ZM125.187 41.184L84.4827 36.864H125.955L125.187 41.184ZM123.555 50.4L82.8507 46.08H124.323L123.555 50.4ZM121.923 59.712L81.2188 55.392H122.691L121.923 59.712ZM201.615 60L212.175 0H230.415L219.855 60H201.615ZM208.431 4.32L167.823 0H209.199L208.431 4.32ZM206.895 13.536L166.191 9.216H207.567L206.895 13.536ZM205.263 22.752L164.559 18.432H206.031L205.263 22.752ZM203.631 31.968L162.927 27.648H204.399L203.631 31.968ZM201.999 41.184L161.295 36.864H202.767L201.999 41.184ZM200.367 50.4L159.663 46.08H201.135L200.367 50.4ZM198.735 59.712L158.031 55.392H199.503L198.735 59.712ZM250.49 60L261.05 0H298.49L293.402 15.36H276.506L275.162 23.424H290.714L288.122 37.728H272.57L268.73 60H250.49ZM257.306 4.32L216.698 0H258.074L257.306 4.32ZM255.77 13.536L215.066 9.216H256.442L255.77 13.536ZM254.138 22.752L213.434 18.432H254.906L254.138 22.752ZM252.506 31.968L211.802 27.648H253.274L252.506 31.968ZM250.874 41.184L210.17 36.864H251.642L250.874 41.184ZM249.242 50.4L208.538 46.08H250.01L249.242 50.4ZM247.61 59.712L206.906 55.392H248.378L247.61 59.712ZM326.736 60L334.512 15.36H321.36L324.144 0H368.784L366 15.36H352.752L344.976 60H326.736ZM320.304 4.32L279.696 0H321.072L320.304 4.32ZM318.768 13.536L278.064 9.216H319.44L318.768 13.536ZM330.288 22.752L289.584 18.432H331.056L330.288 22.752ZM328.656 31.968L287.952 27.648H329.424L328.656 31.968ZM327.024 41.184L286.32 36.864H327.792L327.024 41.184ZM325.392 50.4L284.688 46.08H326.16L325.392 50.4ZM323.76 59.712L283.056 55.392H324.528L323.76 59.712ZM390.938 60L393.722 43.68L385.082 0H405.242L406.49 21.12H407.162L415.994 0H436.154L411.962 43.68L409.178 60H390.938ZM383.066 4.32L342.458 0H382.202L383.066 4.32ZM384.794 13.536L344.186 9.216H383.93L384.794 13.536ZM386.618 22.752L346.01 18.432H385.754L386.618 22.752ZM388.442 31.968L347.738 27.648H387.578L388.442 31.968ZM390.266 41.184L349.562 36.864H389.402L390.266 41.184ZM389.594 50.4L348.986 46.08H390.266L389.594 50.4ZM387.962 59.712L347.354 55.392H388.73L387.962 59.712Z" fill="url(#paint0_linear_4_16)"/>
<defs>
<linearGradient id="paint0_linear_4_16" x1="28.3316" y1="-7" x2="427.001" y2="67.6748" gradientUnits="userSpaceOnUse">
<stop stop-color="#00C49A"/>
<stop offset="1" stop-color="#0E6BA8"/>
</linearGradient>
</defs>
</svg>
