<svg width="261" height="78" viewBox="0 0 261 78" fill="none" xmlns="http://www.w3.org/2000/svg">
<path d="M48.712 39.592C48.648 39.784 48.52 40.04 48.328 40.36C48.2 40.68 48.04 41.032 47.848 41.416C47.656 41.736 47.464 42.024 47.272 42.28C47.08 42.472 46.952 42.536 46.888 42.472C46.888 42.472 46.92 42.312 46.984 41.992C47.048 41.672 47.112 41.32 47.176 40.936C47.304 40.552 47.4 40.2 47.464 39.88C47.592 39.496 47.656 39.24 47.656 39.112C48.616 33.992 48.616 29.576 47.656 25.864C46.696 22.152 45.064 19.112 42.76 16.744C40.52 14.376 37.736 12.616 34.408 11.464C31.144 10.312 27.688 9.704 24.04 9.64C21.416 9.64 18.824 9.864 16.264 10.312C13.768 10.696 11.464 11.208 9.352 11.848C7.304 12.488 5.544 13.192 4.072 13.96C2.664 14.728 1.768 15.464 1.384 16.168C0.936 16.936 0.808 16.84 1 15.88C1.512 14.216 2.856 12.68 5.032 11.272C7.272 9.864 9.864 8.712 12.808 7.816C15.752 6.92 18.824 6.344 22.024 6.088C25.288 5.768 28.232 5.928 30.856 6.568C32.584 6.952 34.312 7.496 36.04 8.2C37.768 8.904 39.4 9.768 40.936 10.792C42.536 11.752 43.976 12.936 45.256 14.344C46.6 15.688 47.72 17.256 48.616 19.048C50.344 22.504 51.176 26.088 51.112 29.8C51.112 33.448 50.312 36.712 48.712 39.592ZM54.952 38.92C53.736 42.504 52.104 45.736 50.056 48.616C48.072 51.496 45.928 54.088 43.624 56.392C41.32 58.632 38.952 60.584 36.52 62.248C34.088 63.912 31.816 65.32 29.704 66.472C29.064 66.792 28.52 67.048 28.072 67.24C27.624 67.432 27.4 67.464 27.4 67.336C27.272 67.272 27.432 67.08 27.88 66.76C28.392 66.376 28.904 65.992 29.416 65.608C33 62.728 36.456 59.688 39.784 56.488C43.176 53.288 46.216 49.64 48.904 45.544C50.248 43.432 51.272 41.128 51.976 38.632C52.68 36.072 53.032 33.448 53.032 30.76C53.032 28.072 52.648 25.416 51.88 22.792C51.176 20.168 50.056 17.736 48.52 15.496C46.472 12.552 43.976 10.216 41.032 8.488C38.152 6.75999 35.048 5.57599 31.72 4.936C28.392 4.232 24.968 4.008 21.448 4.264C17.928 4.52 14.536 5.128 11.272 6.088C10.76 6.216 10.44 6.312 10.312 6.376C10.248 6.44 10.184 6.408 10.12 6.27999C10.056 6.152 10.152 6.024 10.408 5.89599C10.664 5.768 10.888 5.64 11.08 5.512C12.488 4.744 14.312 4.04 16.552 3.4C18.792 2.76 21.32 2.376 24.136 2.248C26.952 2.12 29.96 2.376 33.16 3.016C36.36 3.592 39.592 4.744 42.856 6.472C46.376 8.392 49.096 10.824 51.016 13.768C53 16.712 54.376 19.752 55.144 22.888C55.912 25.96 56.232 28.968 56.104 31.912C55.976 34.792 55.592 37.128 54.952 38.92ZM13.192 71.848C12.872 71.336 12.456 70.536 11.944 69.448C11.496 68.296 11.144 66.952 10.888 65.416C10.76 64.648 10.664 63.784 10.6 62.824C10.6 61.864 10.632 60.968 10.696 60.136C10.76 59.24 10.856 58.504 10.984 57.928C11.112 57.352 11.304 57.064 11.56 57.064C11.624 57.064 11.688 57.256 11.752 57.64C11.88 57.96 11.976 58.344 12.04 58.792C12.168 59.24 12.232 59.688 12.232 60.136C12.296 60.52 12.328 60.808 12.328 61C12.456 62.664 12.648 64.328 12.904 65.992C13.224 67.656 13.672 69.256 14.248 70.792C16.488 68.04 19.048 65.256 21.928 62.44C24.808 59.624 27.624 56.776 30.376 53.896C33.128 50.952 35.624 47.944 37.864 44.872C40.168 41.8 41.832 38.632 42.856 35.368C43.56 33.128 43.688 30.792 43.24 28.36C42.856 25.928 42.056 23.72 40.84 21.736C39.624 19.816 37.896 18.216 35.656 16.936C33.416 15.656 30.952 14.76 28.264 14.248C27.176 14.056 26.088 13.896 25 13.768C23.976 13.64 22.888 13.576 21.736 13.576C21.928 14.536 22.024 15.592 22.024 16.744C22.088 17.832 22.088 18.92 22.024 20.008C21.96 21.096 21.864 22.152 21.736 23.176C21.608 24.136 21.448 25 21.256 25.768C20.36 29.224 19.304 32.712 18.088 36.232C16.872 39.688 15.592 43.016 14.248 46.216C14.12 46.408 13.928 46.728 13.672 47.176C13.48 47.56 13.32 47.752 13.192 47.752C13.064 47.752 13 47.496 13 46.984C13 46.472 13.032 46.12 13.096 45.928C13.16 45.16 13.288 44.232 13.48 43.144C13.672 41.992 13.864 40.84 14.056 39.688C14.312 38.536 14.568 37.416 14.824 36.328C15.08 35.176 15.336 34.216 15.592 33.448C15.72 33.064 15.944 32.136 16.264 30.664C16.648 29.192 17.032 27.496 17.416 25.576C17.8 23.656 18.152 21.64 18.472 19.528C18.856 17.352 19.112 15.368 19.24 13.576H18.088C17.96 16.072 17.608 18.632 17.032 21.256C16.456 23.88 15.752 26.536 14.92 29.224C14.152 31.848 13.32 34.504 12.424 37.192C11.592 39.88 10.856 42.568 10.216 45.256C10.088 45.832 9.896 46.824 9.64 48.232C9.448 49.64 9.288 51.24 9.16 53.032C9.032 54.76 8.968 56.616 8.968 58.6C8.968 60.52 9.096 62.376 9.352 64.168C9.672 65.896 10.12 67.464 10.696 68.872C11.272 70.28 12.104 71.272 13.192 71.848ZM45.064 38.152C43.656 41.48 41.704 44.68 39.208 47.752C36.776 50.824 34.12 53.8 31.24 56.68C28.36 59.496 25.384 62.184 22.312 64.744C19.304 67.304 16.552 69.736 14.056 72.04C13.544 72.488 12.872 72.552 12.04 72.232C11.272 71.848 10.696 71.4 10.312 70.888C8.968 69.096 7.976 67.08 7.336 64.84C6.696 62.6 6.312 60.296 6.184 57.928C6.056 55.496 6.12 53.064 6.376 50.632C6.696 48.136 7.144 45.736 7.72 43.432C9 38.12 10.44 33 12.04 28.072C13.704 23.08 14.92 18.344 15.688 13.864C12.232 14.248 9.128 15.048 6.376 16.264C3.688 17.416 1.896 18.824 1 20.488C1 20.616 0.968 20.68 0.904 20.68C0.776 20.68 0.776 20.424 0.904 19.912C1.416 18.12 2.664 16.584 4.648 15.304C6.632 13.96 9 12.936 11.752 12.232C14.504 11.464 17.448 11.016 20.584 10.888C23.784 10.76 26.888 10.952 29.896 11.464C33.16 12.04 35.976 13.288 38.344 15.208C40.776 17.064 42.664 19.272 44.008 21.832C45.416 24.328 46.216 27.016 46.408 29.896C46.664 32.776 46.216 35.528 45.064 38.152ZM24.424 16.36C25.192 18.024 25.48 20.2 25.288 22.888C25.16 25.576 24.808 28.392 24.232 31.336C23.656 34.216 22.984 37 22.216 39.688C21.512 42.376 20.968 44.552 20.584 46.216C19.816 49.288 18.888 52.36 17.8 55.432C16.712 58.504 15.816 61.192 15.112 63.496C14.792 64.392 14.568 64.84 14.44 64.84C14.248 64.84 14.152 64.68 14.152 64.36C14.152 63.976 14.152 63.624 14.152 63.304C14.344 58.568 15.016 53.896 16.168 49.288C17.384 44.68 18.696 40.008 20.104 35.272C20.936 32.392 21.736 29.384 22.504 26.248C23.272 23.112 23.72 19.816 23.848 16.36C23.848 15.912 23.912 15.656 24.04 15.592C24.104 15.592 24.168 15.688 24.232 15.88C24.296 16.072 24.36 16.232 24.424 16.36ZM35.848 56.2C35.912 56.264 35.784 56.52 35.464 56.968C35.144 57.416 34.728 57.928 34.216 58.504C33.768 59.016 33.288 59.56 32.776 60.136C32.328 60.648 32.008 61 31.816 61.192C30.472 62.536 29.096 63.912 27.688 65.32C26.344 66.664 24.936 67.816 23.464 68.776L14.824 74.248C14.696 74.312 14.504 74.376 14.248 74.44C14.056 74.504 13.896 74.504 13.768 74.44C13.64 74.376 13.576 74.28 13.576 74.152C13.64 74.024 13.704 73.896 13.768 73.768C13.832 73.64 13.928 73.512 14.056 73.384C15.144 72.616 16.36 71.656 17.704 70.504C19.112 69.352 20.552 68.168 22.024 66.952C23.112 66.12 24.392 65.064 25.864 63.784C27.4 62.504 28.872 61.288 30.28 60.136C31.752 58.984 33 58.024 34.024 57.256C35.112 56.424 35.72 56.072 35.848 56.2ZM82.806 54.472C84.854 56.328 86.774 58.312 88.566 60.424C90.358 62.472 92.086 64.616 93.75 66.856C93.814 66.984 93.974 67.24 94.23 67.624C94.55 67.944 94.646 68.168 94.518 68.296C94.454 68.36 94.198 68.328 93.75 68.2C93.366 68.008 93.11 67.848 92.982 67.72C92.47 67.4 91.862 66.984 91.158 66.472C90.518 65.96 89.814 65.416 89.046 64.84C88.342 64.264 87.638 63.688 86.934 63.112C86.23 62.472 85.654 61.896 85.206 61.384C84.886 61.128 84.118 60.488 82.902 59.464C81.686 58.376 80.31 57.224 78.774 56.008C77.238 54.792 75.67 53.672 74.07 52.648C72.47 51.624 71.158 50.984 70.134 50.728C69.942 50.664 69.654 50.568 69.27 50.44C68.95 50.312 68.822 50.088 68.886 49.768C69.398 47.336 70.038 44.968 70.806 42.664C71.574 40.36 72.31 37.992 73.014 35.56C73.91 32.552 74.742 29.48 75.51 26.344C76.342 23.208 76.822 19.816 76.95 16.168C76.95 15.848 76.982 15.688 77.046 15.688C77.238 15.688 77.398 15.912 77.526 16.36C78.294 18.088 78.614 20.328 78.486 23.08C78.358 25.832 78.006 28.712 77.43 31.72C76.918 34.664 76.246 37.512 75.414 40.264C74.646 42.952 73.974 45.096 73.398 46.696L73.11 47.464C75.478 45.864 77.942 44.264 80.502 42.664C83.062 41.064 85.43 39.464 87.606 37.864C89.846 36.2 91.766 34.504 93.366 32.776C95.03 30.984 96.15 29.128 96.726 27.208C97.11 25.928 97.046 24.648 96.534 23.368C96.086 22.088 95.254 20.904 94.038 19.816C92.886 18.664 91.414 17.672 89.622 16.84C87.83 16.008 85.846 15.432 83.67 15.112C80.79 14.728 77.878 14.632 74.934 14.824C75.19 16.744 75.222 18.696 75.03 20.68C74.902 22.6 74.678 24.264 74.358 25.672C73.526 29.128 72.47 32.712 71.19 36.424C69.91 40.072 68.598 43.496 67.254 46.696C67.126 46.888 66.934 47.208 66.678 47.656C66.422 48.104 66.198 48.296 66.006 48.232C65.878 48.168 65.846 47.88 65.91 47.368C65.974 46.856 66.006 46.504 66.006 46.312C66.07 45.544 66.198 44.616 66.39 43.528C66.646 42.376 66.87 41.192 67.062 39.976C67.318 38.76 67.574 37.608 67.83 36.52C68.15 35.368 68.438 34.376 68.694 33.544C68.822 33.16 69.014 32.36 69.27 31.144C69.59 29.864 69.91 28.36 70.23 26.632C70.55 24.904 70.87 23.048 71.19 21.064C71.51 19.08 71.766 17.16 71.958 15.304L70.614 15.496C70.422 17.928 70.038 20.392 69.462 22.888C68.886 25.384 68.214 27.912 67.446 30.472C66.742 32.968 65.974 35.528 65.142 38.152C64.374 40.712 63.702 43.24 63.126 45.736C62.614 47.976 62.198 50.312 61.878 52.744C61.622 55.176 61.526 57.576 61.59 59.944C61.718 62.312 62.006 64.616 62.454 66.856C62.966 69.032 63.766 71.016 64.854 72.808C64.982 73.128 64.982 73.288 64.854 73.288C64.726 73.288 64.566 73.192 64.374 73C62.774 71.144 61.558 69.064 60.726 66.76C59.894 64.456 59.35 62.056 59.094 59.56C58.902 57 58.934 54.376 59.19 51.688C59.51 49 59.958 46.376 60.534 43.816C61.622 39.016 62.934 34.28 64.47 29.608C66.006 24.936 67.286 20.424 68.31 16.072C66.71 16.456 65.142 16.936 63.606 17.512C62.07 18.024 60.63 18.6 59.286 19.24C58.966 19.368 58.774 19.4 58.71 19.336C58.646 19.272 58.678 19.176 58.806 19.048C58.934 18.856 59.062 18.728 59.19 18.664C62.39 16.04 66.294 14.184 70.902 13.096C75.51 12.008 80.214 11.72 85.014 12.232C87.51 12.552 89.782 13.256 91.83 14.344C93.942 15.432 95.67 16.776 97.014 18.376C98.358 19.912 99.222 21.64 99.606 23.56C100.054 25.48 99.862 27.4 99.03 29.32C98.07 31.56 96.534 33.64 94.422 35.56C92.374 37.48 90.038 39.272 87.414 40.936C84.854 42.6 82.134 44.136 79.254 45.544C76.374 46.952 73.686 48.264 71.19 49.48C72.214 49.48 73.27 49.64 74.358 49.96C75.446 50.28 76.502 50.696 77.526 51.208C78.614 51.656 79.606 52.168 80.502 52.744C81.462 53.32 82.23 53.896 82.806 54.472ZM109.398 30.472C108.438 33.8 106.966 36.648 104.982 39.016C103.062 41.32 100.918 43.24 98.55 44.776C96.182 46.312 93.782 47.496 91.35 48.328C88.918 49.096 86.806 49.608 85.014 49.864C84.502 49.992 84.022 50.056 83.574 50.056C83.19 49.992 83.03 49.896 83.094 49.768C82.966 49.64 83.094 49.512 83.478 49.384C83.926 49.256 84.374 49.096 84.822 48.904C88.278 47.624 91.606 45.96 94.806 43.912C98.006 41.864 100.822 39.144 103.254 35.752C104.406 34.152 105.27 32.296 105.846 30.184C106.422 28.072 106.614 25.928 106.422 23.752C106.294 21.576 105.75 19.464 104.79 17.416C103.894 15.368 102.55 13.608 100.758 12.136C98.646 10.344 96.342 8.936 93.846 7.912C91.35 6.888 88.79 6.184 86.166 5.8C83.542 5.416 80.886 5.352 78.198 5.608C75.51 5.8 72.918 6.216 70.422 6.856C69.974 6.984 69.718 7.08 69.654 7.144C69.59 7.144 69.526 7.08 69.462 6.952C69.462 6.888 69.718 6.664 70.23 6.27999C71.254 5.64 72.598 5.064 74.262 4.55199C75.99 3.97599 77.91 3.592 80.022 3.4C82.198 3.208 84.534 3.24 87.03 3.496C89.526 3.688 92.086 4.264 94.71 5.224C97.398 6.12 99.926 7.528 102.294 9.44799C104.662 11.304 106.55 13.608 107.958 16.36C109.302 19.048 109.974 21.672 109.974 24.232C110.038 26.728 109.846 28.808 109.398 30.472ZM60.63 14.824C61.91 12.968 63.606 11.464 65.718 10.312C67.83 9.09599 70.134 8.2 72.63 7.62399C75.126 7.04799 77.718 6.792 80.406 6.856C83.158 6.92 85.814 7.24 88.374 7.816C90.934 8.392 93.302 9.256 95.478 10.408C97.718 11.56 99.574 12.968 101.046 14.632C102.07 15.848 102.838 17.16 103.35 18.568C103.926 19.912 104.214 21.32 104.214 22.792C104.278 24.2 104.118 25.576 103.734 26.92C103.414 28.264 102.934 29.512 102.294 30.664C102.166 30.92 101.846 31.368 101.334 32.008C100.822 32.584 100.502 32.808 100.374 32.68C100.246 32.616 100.342 32.264 100.662 31.624C100.982 30.984 101.206 30.504 101.334 30.184C101.846 28.52 102.038 26.888 101.91 25.288C101.846 23.624 101.526 22.088 100.95 20.68C100.438 19.272 99.734 18.024 98.838 16.936C97.942 15.784 96.982 14.856 95.958 14.152C93.526 12.552 90.774 11.432 87.702 10.792C84.63 10.088 81.494 9.832 78.294 10.024C75.158 10.152 72.086 10.696 69.078 11.656C66.07 12.552 63.478 13.768 61.302 15.304C60.726 15.816 60.342 15.976 60.15 15.784C60.022 15.72 60.022 15.592 60.15 15.4C60.342 15.144 60.502 14.952 60.63 14.824ZM111.798 75.304C112.182 75.24 112.374 75.272 112.374 75.4C112.374 75.528 112.214 75.656 111.894 75.784C109.59 76.616 107.35 77.064 105.174 77.128C102.998 77.192 100.918 76.968 98.934 76.456C96.95 76.008 95.094 75.336 93.366 74.44C91.638 73.608 90.07 72.68 88.662 71.656C86.998 70.44 85.398 69.096 83.862 67.624C82.39 66.088 80.95 64.584 79.542 63.112C78.134 61.576 76.726 60.104 75.318 58.696C73.91 57.288 72.47 56.04 70.998 54.952C69.91 58.536 68.918 61.704 68.022 64.456C67.894 64.776 67.766 65.064 67.638 65.32C67.51 65.576 67.382 65.672 67.254 65.608C67.126 65.544 67.062 65.384 67.062 65.128C67.062 64.808 67.062 64.488 67.062 64.168C67.19 62.376 67.318 60.552 67.446 58.696C67.574 56.84 67.862 54.984 68.31 53.128C67.862 52.872 67.414 52.648 66.966 52.456C66.582 52.264 66.134 52.04 65.622 51.784C65.43 51.592 65.334 51.464 65.334 51.4C65.334 51.336 65.398 51.304 65.526 51.304C65.718 51.304 65.878 51.304 66.006 51.304C68.566 51.496 70.902 52.296 73.014 53.704C75.126 55.048 77.174 56.648 79.158 58.504C81.142 60.36 83.094 62.344 85.014 64.456C86.934 66.504 88.982 68.328 91.158 69.928C92.374 70.824 93.75 71.656 95.286 72.424C96.886 73.128 98.582 73.736 100.374 74.248C102.166 74.76 104.022 75.112 105.942 75.304C107.926 75.56 109.878 75.56 111.798 75.304ZM96.918 61.288C98.71 62.888 100.406 64.68 102.006 66.664C103.67 68.648 105.27 70.248 106.806 71.464C107.254 71.912 107.446 72.232 107.382 72.424C107.254 72.552 107.094 72.584 106.902 72.52C106.71 72.456 106.486 72.392 106.23 72.328C104.502 71.752 102.87 70.952 101.334 69.928C99.862 68.904 98.422 67.752 97.014 66.472C95.606 65.192 94.23 63.848 92.886 62.44C91.606 61.032 90.294 59.656 88.95 58.312C88.054 57.416 87.062 56.424 85.974 55.336C84.95 54.248 83.862 53.256 82.71 52.36C81.558 51.4 80.342 50.632 79.062 50.056C77.846 49.416 76.566 49.096 75.222 49.096L78.966 47.464C79.926 47.016 81.11 46.472 82.518 45.832C83.926 45.192 85.27 44.584 86.55 44.008C87.83 43.432 88.95 42.984 89.91 42.664C90.87 42.28 91.382 42.12 91.446 42.184C91.51 42.312 91.382 42.536 91.062 42.856C90.806 43.176 90.422 43.528 89.91 43.912C89.462 44.296 89.014 44.648 88.566 44.968C88.118 45.288 87.798 45.48 87.606 45.544C86.39 46.248 85.238 46.92 84.15 47.56C83.126 48.136 82.07 48.68 80.982 49.192C82.454 49.768 83.958 50.6 85.494 51.688C87.03 52.712 88.502 53.832 89.91 55.048C91.318 56.264 92.63 57.448 93.846 58.6C95.062 59.688 96.086 60.584 96.918 61.288ZM65.814 67.24C66.006 68.328 66.262 69.384 66.582 70.408C66.902 71.432 67.286 72.296 67.734 73C67.798 73 67.83 73.032 67.83 73.096C67.894 73.224 67.862 73.288 67.734 73.288C67.606 73.288 67.446 73.224 67.254 73.096C67.126 73.032 66.998 73 66.87 73C66.038 72.488 65.366 71.88 64.854 71.176C64.406 70.408 64.022 69.096 63.702 67.24C63.574 66.536 63.51 65.64 63.51 64.552C63.51 63.464 63.542 62.44 63.606 61.48C63.67 60.456 63.766 59.592 63.894 58.888C64.022 58.184 64.214 57.832 64.47 57.832C64.534 57.832 64.598 57.992 64.662 58.312C64.79 58.632 64.886 59.016 64.95 59.464C65.014 59.848 65.046 60.232 65.046 60.616C65.11 61 65.142 61.256 65.142 61.384C65.27 62.472 65.366 63.496 65.43 64.456C65.494 65.416 65.622 66.344 65.814 67.24ZM107.862 73.288C108.886 73.352 109.654 73.352 110.166 73.288C110.742 73.288 111.478 73.224 112.374 73.096C112.438 73.096 112.598 73.064 112.854 73C113.11 73 113.27 73.032 113.334 73.096C113.398 73.224 113.302 73.384 113.046 73.576C112.854 73.768 112.694 73.896 112.566 73.96C111.542 74.28 110.582 74.504 109.686 74.632C108.854 74.76 107.606 74.728 105.942 74.536C105.366 74.472 104.726 74.344 104.022 74.152C103.318 73.96 102.678 73.736 102.102 73.48C101.526 73.288 101.078 73.096 100.758 72.904C100.438 72.648 100.374 72.456 100.566 72.328C100.694 72.264 101.078 72.328 101.718 72.52C102.422 72.648 102.902 72.744 103.158 72.808C104.054 73 104.886 73.128 105.654 73.192C106.422 73.256 107.158 73.288 107.862 73.288ZM131.178 24.232C130.282 27.688 129.162 31.272 127.818 34.984C126.538 38.696 125.194 42.216 123.786 45.544C123.722 45.672 123.594 45.992 123.402 46.504C123.21 46.952 122.986 47.144 122.73 47.08C122.602 47.08 122.538 46.824 122.538 46.312C122.602 45.736 122.634 45.352 122.634 45.16C122.698 44.392 122.826 43.432 123.018 42.28C123.21 41.128 123.434 39.944 123.69 38.728C123.946 37.512 124.202 36.328 124.458 35.176C124.714 34.024 124.97 33.032 125.226 32.2C125.354 31.816 125.546 31.048 125.802 29.896C126.122 28.68 126.442 27.24 126.762 25.576C127.146 23.912 127.498 22.12 127.818 20.2C128.202 18.28 128.522 16.424 128.778 14.632C129.034 12.84 129.194 11.208 129.258 9.736C129.322 8.264 129.226 7.112 128.97 6.27999C128.842 6.02399 128.81 5.832 128.874 5.704C128.938 5.512 129.002 5.41599 129.066 5.41599C129.194 5.41599 129.29 5.512 129.354 5.704C129.418 5.832 129.514 5.96 129.642 6.088C130.346 7.176 130.89 8.488 131.274 10.024C131.658 11.56 131.882 13.192 131.946 14.92C132.074 16.584 132.042 18.248 131.85 19.912C131.722 21.576 131.498 23.016 131.178 24.232ZM130.314 45.544C129.546 48.616 128.618 51.752 127.53 54.952C126.442 58.152 125.482 60.968 124.65 63.4C124.522 63.72 124.394 64.04 124.266 64.36C124.138 64.616 124.042 64.68 123.978 64.552C123.85 64.552 123.754 64.392 123.69 64.072C123.69 63.752 123.69 63.432 123.69 63.112C123.882 58.312 124.554 53.512 125.706 48.712C126.922 43.912 128.266 39.08 129.738 34.216C130.634 31.208 131.434 28.136 132.138 25C132.906 21.8 133.418 18.376 133.674 14.728C133.674 14.408 133.77 14.248 133.962 14.248C134.026 14.248 134.09 14.312 134.154 14.44C134.218 14.568 134.282 14.696 134.346 14.824C135.05 16.552 135.306 18.824 135.114 21.64C134.986 24.392 134.634 27.272 134.058 30.28C133.482 33.224 132.81 36.104 132.042 38.92C131.274 41.672 130.698 43.88 130.314 45.544ZM121.482 72.616C121.674 73 121.738 73.192 121.674 73.192C121.546 73.192 121.418 73.16 121.29 73.096C121.162 73.032 121.066 73 121.002 73C119.21 70.888 117.898 68.616 117.066 66.184C116.234 63.688 115.722 61.128 115.53 58.504C115.402 55.88 115.498 53.224 115.818 50.536C116.202 47.848 116.682 45.224 117.258 42.664C118.09 39.144 119.05 35.656 120.138 32.2C121.226 28.68 122.218 25.288 123.114 22.024C124.074 18.696 124.842 15.496 125.418 12.424C126.058 9.352 126.346 6.408 126.282 3.592C126.282 3.272 126.346 3.08 126.474 3.016C126.538 3.016 126.602 3.112 126.666 3.304C126.794 3.496 126.858 3.62399 126.858 3.68799C127.754 6.76 128.042 9.96 127.722 13.288C127.402 16.552 126.762 19.912 125.802 23.368C124.906 26.824 123.882 30.344 122.73 33.928C121.578 37.512 120.586 41.064 119.754 44.584C119.242 46.824 118.826 49.16 118.506 51.592C118.25 54.024 118.154 56.488 118.218 58.984C118.346 61.416 118.666 63.816 119.178 66.184C119.69 68.488 120.458 70.632 121.482 72.616ZM122.538 66.184C122.858 68.232 123.498 70.376 124.458 72.616C124.522 72.744 124.554 72.904 124.554 73.096C124.618 73.288 124.586 73.384 124.458 73.384C124.33 73.384 124.138 73.32 123.882 73.192C123.754 73.128 123.658 73.032 123.594 72.904C122.762 71.944 122.09 71.048 121.578 70.216C121.13 69.384 120.746 68.04 120.426 66.184C120.298 65.48 120.202 64.584 120.138 63.496C120.138 62.408 120.17 61.352 120.234 60.328C120.298 59.304 120.394 58.44 120.522 57.736C120.714 57.032 120.938 56.68 121.194 56.68C121.258 56.68 121.322 56.84 121.386 57.16C121.514 57.48 121.61 57.864 121.674 58.312C121.738 58.696 121.77 59.112 121.77 59.56C121.834 59.944 121.866 60.2 121.866 60.328C121.994 61.416 122.09 62.44 122.154 63.4C122.218 64.36 122.346 65.288 122.538 66.184ZM138.275 51.016C138.083 51.464 137.955 51.56 137.891 51.304C137.891 50.984 137.923 50.76 137.987 50.632C138.435 48.136 139.331 46.12 140.675 44.584C140.931 42.408 141.379 40.104 142.019 37.672C142.723 35.176 143.459 32.68 144.227 30.184C144.995 27.688 145.731 25.256 146.435 22.888C147.203 20.456 147.843 18.216 148.355 16.168C146.883 16.168 145.475 16.072 144.131 15.88C143.619 15.752 143.363 15.688 143.363 15.688C143.299 15.496 143.523 15.272 144.035 15.016C146.531 13.736 149.219 13.064 152.099 13C154.979 12.872 157.859 12.936 160.739 13.192C162.595 13.32 164.451 13.416 166.307 13.48C168.163 13.544 170.115 13.256 172.163 12.616C172.483 12.552 172.643 12.616 172.643 12.808C172.643 12.936 172.547 13.096 172.355 13.288C171.651 14.12 170.723 14.76 169.571 15.208C168.483 15.592 167.267 15.88 165.923 16.072C164.579 16.264 163.203 16.36 161.795 16.36C160.451 16.36 159.171 16.36 157.955 16.36C158.275 17.896 158.403 19.688 158.339 21.736C158.275 23.72 158.083 25.8 157.763 27.976C157.507 30.152 157.123 32.328 156.611 34.504C156.163 36.68 155.715 38.696 155.267 40.552C157.699 40.872 160.003 41.128 162.179 41.32C164.419 41.448 166.435 41 168.227 39.976C168.419 39.912 168.515 39.944 168.515 40.072C168.515 40.264 168.483 40.424 168.419 40.552C167.267 42.088 165.955 43.112 164.483 43.624C163.011 44.072 161.475 44.264 159.875 44.2C158.275 44.072 156.611 43.848 154.883 43.528C153.155 43.208 151.491 43.048 149.891 43.048C147.843 43.048 145.731 43.656 143.555 44.872C141.443 46.024 139.683 48.072 138.275 51.016ZM147.587 63.112C147.651 61.512 147.747 59.848 147.875 58.12C148.003 56.392 148.227 54.696 148.547 53.032C148.291 52.968 147.683 52.872 146.723 52.744C145.827 52.552 144.931 52.424 144.035 52.36C143.203 52.296 142.659 52.424 142.403 52.744C142.211 53 142.083 53.512 142.019 54.28C141.699 57.544 141.827 60.776 142.403 63.976C142.979 67.176 143.939 70.056 145.283 72.616C145.411 72.808 145.443 72.968 145.379 73.096C145.315 73.224 145.187 73.192 144.995 73C142.883 70.44 141.443 67.88 140.675 65.32C139.907 62.696 139.459 59.912 139.331 56.968C139.267 55.688 139.523 54.504 140.099 53.416C140.739 52.328 141.699 51.496 142.979 50.92C145.091 50.024 147.203 49.64 149.315 49.768C151.427 49.896 153.635 50.088 155.939 50.344C157.283 50.472 158.691 50.6 160.163 50.728C161.699 50.792 163.203 50.472 164.675 49.768C164.867 49.64 164.995 49.608 165.059 49.672C165.123 49.736 165.123 49.832 165.059 49.96C164.995 50.088 164.931 50.216 164.867 50.344C164.291 51.368 163.427 52.104 162.275 52.552C161.187 53 160.003 53.288 158.723 53.416C157.443 53.544 156.163 53.576 154.883 53.512C153.667 53.448 152.643 53.416 151.811 53.416C151.235 55.336 150.627 57.128 149.987 58.792C149.347 60.456 148.803 61.992 148.355 63.4C148.099 64.232 147.907 64.616 147.779 64.552C147.651 64.488 147.587 64.328 147.587 64.072C147.587 63.752 147.587 63.432 147.587 63.112ZM138.659 16.072C138.531 16.52 138.403 16.648 138.275 16.456C138.211 16.2 138.211 15.976 138.275 15.784C138.595 13.48 139.267 11.528 140.291 9.928C141.315 8.328 142.531 7.048 143.939 6.088C145.347 5.064 146.883 4.328 148.547 3.88C150.211 3.368 151.875 3.08 153.539 3.016C155.779 2.952 157.987 3.048 160.163 3.304C162.339 3.496 164.451 3.688 166.499 3.88C168.611 4.072 170.595 4.168 172.451 4.168C174.371 4.104 176.163 3.78399 177.827 3.20799C178.019 3.144 178.115 3.176 178.115 3.304L177.827 3.68799C176.163 5.15999 174.339 6.088 172.355 6.472C170.371 6.856 168.291 7.016 166.115 6.952C164.003 6.824 161.827 6.632 159.587 6.376C157.347 6.056 155.139 5.96 152.963 6.088C151.555 6.152 150.115 6.408 148.643 6.856C147.171 7.304 145.795 7.944 144.515 8.776C143.235 9.544 142.083 10.536 141.059 11.752C140.035 12.968 139.235 14.408 138.659 16.072ZM166.595 12.232C164.547 12.104 162.339 11.848 159.971 11.464C157.667 11.08 155.491 10.632 153.443 10.12C153.315 10.12 153.059 10.056 152.675 9.928C152.355 9.8 152.195 9.64 152.195 9.44799C152.195 9.32 152.323 9.224 152.579 9.16C152.899 9.032 153.123 8.96799 153.251 8.96799C153.699 8.84 154.243 8.744 154.883 8.68C155.587 8.552 156.291 8.456 156.995 8.392C157.763 8.328 158.499 8.296 159.203 8.296C159.907 8.296 160.515 8.296 161.027 8.296C161.987 8.36 163.203 8.392 164.675 8.392C166.211 8.392 167.747 8.328 169.283 8.2C170.819 8.008 172.227 7.784 173.507 7.528C174.851 7.208 175.875 6.792 176.579 6.27999C176.899 5.96 177.059 5.928 177.059 6.184C177.059 6.312 176.995 6.44 176.867 6.568C176.803 6.696 176.739 6.824 176.675 6.952C176.163 7.848 175.491 8.648 174.659 9.352C173.827 9.99199 172.931 10.568 171.971 11.08C171.011 11.528 170.051 11.848 169.091 12.04C168.195 12.232 167.363 12.296 166.595 12.232ZM160.355 49.48C158.691 49.352 156.963 49.064 155.171 48.616C153.443 48.168 151.747 47.656 150.083 47.08C150.019 47.08 149.859 47.016 149.603 46.888C149.411 46.76 149.315 46.6 149.315 46.408C149.315 46.28 149.475 46.152 149.795 46.024C150.115 45.896 150.435 45.8 150.755 45.736C151.267 45.608 152.003 45.512 152.963 45.448C153.923 45.32 154.819 45.32 155.651 45.448C156.675 45.576 157.795 45.672 159.011 45.736C160.227 45.736 161.379 45.672 162.467 45.544C163.555 45.352 164.547 45.064 165.443 44.68C166.339 44.296 167.011 43.816 167.459 43.24C167.523 43.048 167.651 42.952 167.843 42.952H167.939C168.003 43.08 168.003 43.24 167.939 43.432C167.939 43.624 167.907 43.784 167.843 43.912C167.139 45.768 166.019 47.176 164.483 48.136C162.947 49.096 161.571 49.544 160.355 49.48ZM149.219 32.2C149.283 31.88 149.475 31.208 149.795 30.184C150.179 29.096 150.595 27.816 151.043 26.344C151.491 24.872 151.907 23.272 152.291 21.544C152.739 19.816 153.059 18.088 153.251 16.36H151.043C150.531 20.392 149.539 24.52 148.067 28.744C146.659 32.904 145.379 37.128 144.227 41.416C144.739 41.16 145.219 40.936 145.667 40.744C146.179 40.552 146.691 40.392 147.203 40.264C147.523 38.856 147.843 37.448 148.163 36.04C148.547 34.568 148.899 33.288 149.219 32.2ZM154.307 25.288C153.603 27.976 152.931 30.472 152.291 32.776C151.715 35.016 150.947 37.416 149.987 39.976H150.275C150.467 39.976 150.659 39.976 150.851 39.976C151.107 39.976 151.395 40.04 151.715 40.168C151.971 39.144 152.259 38.184 152.579 37.288C152.899 36.328 153.219 35.304 153.539 34.216C154.307 31.528 155.011 28.84 155.651 26.152C156.291 23.4 156.739 20.136 156.995 16.36H155.075C155.075 17.832 155.011 19.432 154.883 21.16C154.819 22.824 154.627 24.2 154.307 25.288ZM146.435 66.184C146.627 67.272 146.883 68.36 147.203 69.448C147.523 70.472 147.875 71.528 148.259 72.616C148.323 72.744 148.355 72.904 148.355 73.096C148.419 73.352 148.387 73.48 148.259 73.48C148.131 73.48 147.971 73.416 147.779 73.288C147.587 73.16 147.427 73.032 147.299 72.904C146.531 71.944 145.891 71.048 145.379 70.216C144.931 69.384 144.547 68.04 144.227 66.184C144.099 65.48 144.003 64.584 143.939 63.496C143.939 62.408 143.971 61.352 144.035 60.328C144.099 59.304 144.195 58.44 144.323 57.736C144.515 57.032 144.739 56.68 144.995 56.68C145.059 56.68 145.123 56.84 145.187 57.16C145.315 57.48 145.411 57.864 145.475 58.312C145.539 58.696 145.571 59.112 145.571 59.56C145.635 59.944 145.667 60.2 145.667 60.328C145.795 61.416 145.891 62.44 145.955 63.4C146.083 64.36 146.243 65.288 146.435 66.184ZM142.211 14.824C141.699 15.464 141.219 16.104 140.771 16.744C140.387 17.32 140.035 17.96 139.715 18.664C139.651 18.792 139.555 18.856 139.427 18.856C139.299 18.792 139.267 18.504 139.331 17.992C139.459 16.904 139.619 16.008 139.811 15.304C140.003 14.6 140.547 13.8 141.443 12.904C141.763 12.52 142.211 12.168 142.787 11.848C143.363 11.464 143.907 11.144 144.419 10.888C144.931 10.632 145.379 10.472 145.763 10.408C146.211 10.344 146.467 10.44 146.531 10.696C146.595 10.888 146.371 11.208 145.859 11.656C145.411 12.104 145.059 12.392 144.803 12.52C143.779 13.288 142.915 14.056 142.211 14.824ZM138.755 53.896C138.627 54.152 138.499 54.216 138.371 54.088C138.307 54.024 138.307 53.704 138.371 53.128C138.627 52.232 138.915 51.432 139.235 50.728C139.555 49.96 140.067 49.224 140.771 48.52C141.027 48.264 141.411 48.008 141.923 47.752C142.499 47.496 143.011 47.304 143.459 47.176C143.971 46.984 144.387 46.888 144.707 46.888C145.027 46.824 145.123 46.888 144.995 47.08C144.611 47.592 144.099 48.136 143.459 48.712C142.883 49.288 142.275 49.896 141.635 50.536C141.059 51.176 140.483 51.784 139.907 52.36C139.395 52.936 139.011 53.448 138.755 53.896ZM201.019 24.232C200.123 27.688 199.003 31.272 197.659 34.984C196.379 38.696 195.035 42.216 193.627 45.544C193.563 45.672 193.403 45.992 193.147 46.504C192.891 46.952 192.699 47.144 192.571 47.08C192.379 47.08 192.283 46.824 192.283 46.312C192.347 45.736 192.411 45.352 192.475 45.16C192.539 44.392 192.667 43.432 192.859 42.28C193.051 41.128 193.243 39.944 193.435 38.728C193.691 37.512 193.947 36.328 194.203 35.176C194.523 34.024 194.811 33.032 195.067 32.2C195.195 31.944 195.387 31.304 195.643 30.28C195.899 29.256 196.155 28.04 196.411 26.632C196.731 25.16 197.051 23.56 197.371 21.832C197.691 20.104 197.979 18.408 198.235 16.744L197.083 16.456C196.763 18.696 196.283 21 195.643 23.368C195.067 25.672 194.395 28.008 193.627 30.376C192.923 32.68 192.219 35.048 191.515 37.48C190.811 39.848 190.171 42.216 189.595 44.584C189.083 46.824 188.699 49.16 188.443 51.592C188.187 54.024 188.091 56.488 188.155 58.984C188.219 61.416 188.507 63.816 189.019 66.184C189.531 68.488 190.299 70.632 191.323 72.616C191.515 73.064 191.579 73.288 191.515 73.288C191.387 73.288 191.291 73.256 191.227 73.192L191.035 73C189.243 70.888 187.899 68.616 187.003 66.184C186.171 63.688 185.627 61.128 185.371 58.504C185.179 55.88 185.243 53.224 185.563 50.536C185.883 47.848 186.331 45.224 186.907 42.664C187.995 37.928 189.275 33.384 190.747 29.032C192.219 24.616 193.467 20.296 194.491 16.072C190.651 15.432 187.035 14.856 183.643 14.344C180.315 13.768 177.211 13.768 174.331 14.344C174.139 14.344 174.043 14.312 174.043 14.248C174.043 14.12 174.075 14.056 174.139 14.056C174.267 13.992 174.363 13.928 174.427 13.864C176.603 12.584 178.907 11.88 181.339 11.752C183.835 11.624 186.395 11.752 189.019 12.136C191.707 12.456 194.427 12.904 197.179 13.48C199.995 13.992 202.811 14.28 205.627 14.344C207.355 14.408 209.147 14.28 211.003 13.96C212.923 13.576 214.747 13.032 216.475 12.328C218.267 11.56 219.867 10.568 221.275 9.352C222.747 8.136 223.931 6.696 224.827 5.032C224.955 4.712 225.083 4.55199 225.211 4.55199V4.84V5.032C224.507 7.464 223.419 9.48 221.947 11.08C220.475 12.616 218.779 13.864 216.859 14.824C215.003 15.784 212.987 16.456 210.811 16.84C208.699 17.16 206.619 17.288 204.571 17.224C204.891 19.208 204.891 21.512 204.571 24.136C204.315 26.76 203.899 29.416 203.323 32.104C202.747 34.792 202.139 37.352 201.499 39.784C200.859 42.152 200.347 44.072 199.963 45.544C199.195 48.616 198.299 51.752 197.275 54.952C196.251 58.152 195.323 60.968 194.491 63.4C194.363 63.72 194.203 64.008 194.011 64.264C193.883 64.52 193.755 64.616 193.627 64.552C193.499 64.488 193.435 64.328 193.435 64.072C193.499 63.752 193.531 63.432 193.531 63.112C193.723 58.312 194.427 53.512 195.643 48.712C196.859 43.912 198.171 39.08 199.579 34.216C200.347 31.528 201.083 28.808 201.787 26.056C202.555 23.304 203.099 20.36 203.419 17.224C203.099 17.16 202.811 17.128 202.555 17.128C202.363 17.128 202.107 17.128 201.787 17.128C201.787 18.408 201.723 19.656 201.595 20.872C201.531 22.088 201.339 23.208 201.019 24.232ZM203.611 3.784C206.107 4.104 208.635 4.36 211.195 4.55199C213.755 4.744 215.963 4.84 217.819 4.84C218.459 4.84 218.779 4.936 218.779 5.128C218.779 5.384 218.459 5.608 217.819 5.8C214.555 7.08 211.099 7.656 207.451 7.528C203.867 7.4 200.219 7.048 196.507 6.472C194.267 6.152 191.963 5.832 189.595 5.512C187.227 5.192 184.667 5.192 181.915 5.512C181.659 5.576 181.531 5.544 181.531 5.41599C181.531 5.288 181.595 5.192 181.723 5.128C181.851 5.064 181.979 4.968 182.107 4.84C183.323 3.944 184.891 3.368 186.811 3.112C188.731 2.792 190.715 2.664 192.763 2.72799C194.875 2.72799 196.891 2.856 198.811 3.112C200.731 3.368 202.331 3.592 203.611 3.784ZM189.211 6.75999C191.899 7.144 194.619 7.624 197.371 8.2C200.187 8.776 202.907 9.416 205.531 10.12C205.659 10.248 205.915 10.376 206.299 10.504C206.747 10.568 206.971 10.696 206.971 10.888C206.971 11.016 206.779 11.112 206.395 11.176C206.011 11.24 205.723 11.336 205.531 11.464C204.955 11.592 204.219 11.656 203.323 11.656C202.491 11.656 201.595 11.656 200.635 11.656C199.739 11.592 198.843 11.528 197.947 11.464C197.051 11.4 196.283 11.304 195.643 11.176C195.195 11.112 194.075 10.984 192.283 10.792C190.555 10.6 188.635 10.472 186.523 10.408C184.411 10.344 182.363 10.376 180.379 10.504C178.459 10.568 177.083 10.824 176.251 11.272C175.995 11.4 175.835 11.464 175.771 11.464H175.675C175.675 11.208 175.803 10.952 176.059 10.696C176.699 9.86399 177.563 9.16 178.651 8.584C179.803 8.008 180.987 7.56 182.203 7.23999C183.419 6.91999 184.635 6.72799 185.851 6.664C187.131 6.6 188.251 6.632 189.211 6.75999ZM192.379 66.184C192.571 67.272 192.795 68.36 193.051 69.448C193.371 70.536 193.755 71.592 194.203 72.616C194.459 73.128 194.491 73.384 194.299 73.384C194.171 73.384 193.979 73.32 193.723 73.192C193.595 73.128 193.499 73.032 193.435 72.904C192.603 71.944 191.931 71.048 191.419 70.216C190.971 69.384 190.587 68.04 190.267 66.184C190.139 65.48 190.043 64.584 189.979 63.496C189.979 62.408 190.011 61.352 190.075 60.328C190.139 59.304 190.235 58.44 190.363 57.736C190.491 57.032 190.683 56.68 190.939 56.68C191.003 56.68 191.067 56.84 191.131 57.16C191.259 57.48 191.355 57.864 191.419 58.312C191.483 58.696 191.547 59.112 191.611 59.56C191.675 59.944 191.707 60.2 191.707 60.328C191.835 61.416 191.931 62.44 191.995 63.4C192.123 64.36 192.251 65.288 192.379 66.184ZM220.219 6.088C221.627 4.872 222.811 3.56 223.771 2.152C223.899 1.896 224.027 1.768 224.155 1.768C224.219 1.768 224.251 1.992 224.251 2.44C224.251 2.696 224.219 2.92 224.155 3.112C223.899 4.2 223.611 5.064 223.291 5.704C222.971 6.344 222.203 7.112 220.987 8.008C220.539 8.392 219.931 8.776 219.163 9.16C218.395 9.48 217.659 9.768 216.955 10.024C216.251 10.28 215.611 10.44 215.035 10.504C214.523 10.504 214.235 10.376 214.171 10.12C214.171 10.056 214.267 9.96 214.459 9.832C214.651 9.64 214.875 9.448 215.131 9.256C215.451 9.064 215.739 8.904 215.995 8.776C216.251 8.584 216.443 8.456 216.571 8.392C217.211 8.072 217.819 7.72 218.395 7.336C219.035 6.952 219.643 6.536 220.219 6.088ZM225.437 73C225.437 73.32 225.437 73.48 225.437 73.48C225.181 73.48 224.989 73.32 224.861 73C223.965 70.696 223.581 68.232 223.709 65.608C223.837 62.984 224.285 60.296 225.053 57.544C225.821 54.792 226.845 52.04 228.125 49.288C229.469 46.472 230.909 43.752 232.445 41.128C230.717 39.976 229.277 38.536 228.125 36.808C227.037 35.016 226.077 33.128 225.245 31.144C224.221 28.776 223.357 26.376 222.653 23.944C221.949 21.512 221.277 19.144 220.637 16.84C219.997 14.536 219.325 12.36 218.621 10.312C217.917 8.2 217.085 6.312 216.125 4.648C216.125 4.392 216.157 4.296 216.221 4.36C218.205 5.768 219.741 7.496 220.829 9.544C221.981 11.592 222.909 13.8 223.613 16.168C224.381 18.536 225.085 21 225.725 23.56C226.365 26.056 227.197 28.456 228.221 30.76C228.925 32.36 229.693 33.864 230.525 35.272C231.421 36.616 232.509 37.896 233.789 39.112L235.037 37.096C234.589 36.52 234.237 36.008 233.981 35.56C233.789 35.048 233.789 34.728 233.981 34.6C234.109 34.6 234.333 34.728 234.653 34.984C234.973 35.176 235.325 35.496 235.709 35.944C236.349 35.24 236.829 34.536 237.149 33.832C235.997 31.72 234.973 29.512 234.077 27.208C233.245 24.904 232.445 22.536 231.677 20.104C231.037 18.056 230.365 16.072 229.661 14.152C228.957 12.232 227.965 10.152 226.685 7.912C226.621 7.784 226.525 7.688 226.397 7.62399C226.333 7.496 226.333 7.4 226.397 7.336C226.525 7.208 226.749 7.24 227.069 7.432C228.413 8.008 229.597 9.096 230.621 10.696C231.709 12.232 232.669 13.928 233.501 15.784C234.333 17.64 235.037 19.496 235.613 21.352C236.253 23.144 236.765 24.584 237.149 25.672L239.165 30.952C242.749 25.704 246.173 20.584 249.437 15.592C252.765 10.6 255.261 5.70399 256.925 0.903996C257.053 0.583996 257.117 0.423996 257.117 0.423996C257.245 0.295998 257.309 0.391998 257.309 0.711998C257.373 0.967999 257.405 1.128 257.405 1.192C257.085 4.84 256.125 8.424 254.525 11.944C252.925 15.464 251.005 18.984 248.765 22.504C246.589 25.96 244.221 29.448 241.661 32.968C239.101 36.488 236.733 40.04 234.557 43.624C233.149 45.928 231.837 48.36 230.621 50.92C229.405 53.48 228.349 56.072 227.453 58.696C226.621 61.256 226.013 63.784 225.629 66.28C225.245 68.712 225.181 70.952 225.437 73ZM244.445 47.848C243.485 49.384 242.461 50.984 241.373 52.648C240.285 54.248 239.165 55.816 238.013 57.352C236.925 58.888 235.869 60.36 234.845 61.768C233.821 63.176 232.893 64.456 232.061 65.608C231.741 66.056 231.453 66.408 231.197 66.664C230.941 66.856 230.781 66.92 230.717 66.856C230.589 66.856 230.589 66.664 230.717 66.28C230.845 65.896 230.973 65.544 231.101 65.224C233.149 59.976 235.709 54.92 238.781 50.056C241.917 45.192 245.117 40.296 248.381 35.368C250.365 32.296 252.381 29.224 254.429 26.152C256.477 23.016 258.269 19.432 259.805 15.4C259.933 15.08 259.965 14.888 259.901 14.824C259.901 14.76 259.965 14.728 260.093 14.728C260.221 14.792 260.285 14.92 260.285 15.112C260.285 15.304 260.285 15.496 260.285 15.688C260.285 17.096 259.997 18.696 259.421 20.488C258.845 22.28 258.077 24.2 257.117 26.248C256.157 28.232 255.101 30.28 253.949 32.392C252.797 34.44 251.613 36.424 250.397 38.344C249.245 40.264 248.125 42.056 247.037 43.72C246.013 45.32 245.149 46.696 244.445 47.848ZM253.565 24.904C251.325 28.36 248.861 31.944 246.173 35.656C243.485 39.368 240.829 42.792 238.205 45.928C238.077 46.056 237.789 46.376 237.341 46.888C236.893 47.336 236.573 47.496 236.381 47.368C236.253 47.24 236.285 46.92 236.477 46.408C236.733 45.832 236.925 45.448 237.053 45.256C237.501 44.36 238.045 43.336 238.685 42.184C239.325 40.968 239.997 39.752 240.701 38.536C241.405 37.32 242.109 36.136 242.813 34.984C243.581 33.832 244.253 32.84 244.829 32.008C245.085 31.624 245.597 30.824 246.365 29.608C247.133 28.328 247.997 26.856 248.957 25.192C249.917 23.464 250.941 21.608 252.029 19.624C253.117 17.64 254.109 15.72 255.005 13.864C255.901 11.944 256.669 10.184 257.309 8.584C257.949 6.92 258.301 5.608 258.365 4.648C258.493 4.008 258.589 3.68799 258.653 3.68799C258.781 3.68799 258.877 3.848 258.941 4.168C259.005 4.424 259.069 4.616 259.133 4.744C259.389 6.088 259.389 7.65599 259.133 9.44799C258.877 11.24 258.461 13.096 257.885 15.016C257.373 16.872 256.701 18.696 255.869 20.488C255.101 22.216 254.333 23.688 253.565 24.904ZM228.317 13.96C229.021 16.328 229.693 18.856 230.333 21.544C231.037 24.168 231.613 26.728 232.061 29.224C232.125 29.352 232.125 29.576 232.061 29.896C232.061 30.152 231.997 30.344 231.869 30.472C231.741 30.536 231.549 30.44 231.293 30.184C231.037 29.928 230.877 29.736 230.813 29.608C230.493 29.16 230.141 28.584 229.757 27.88C229.373 27.176 229.021 26.44 228.701 25.672C228.381 24.904 228.061 24.136 227.741 23.368C227.485 22.6 227.261 21.928 227.069 21.352C226.877 20.712 226.461 19.624 225.821 18.088C225.245 16.488 224.541 14.824 223.709 13.096C222.941 11.368 222.109 9.736 221.213 8.2C220.381 6.664 219.613 5.608 218.909 5.032C218.525 4.648 218.397 4.456 218.525 4.456C218.589 4.392 218.717 4.392 218.909 4.456C219.101 4.51999 219.261 4.584 219.389 4.648C220.413 4.968 221.405 5.48 222.365 6.184C223.389 6.88799 224.285 7.688 225.053 8.584C225.885 9.48 226.557 10.408 227.069 11.368C227.645 12.264 228.061 13.128 228.317 13.96ZM228.893 68.008C228.637 69.224 228.445 70.312 228.317 71.272C228.253 72.168 228.221 72.968 228.221 73.672C228.221 73.8 228.221 73.96 228.221 74.152C228.221 74.344 228.125 74.44 227.933 74.44C227.805 74.44 227.645 74.344 227.453 74.152C227.325 74.024 227.229 73.864 227.165 73.672C227.037 73.352 226.909 73.032 226.781 72.712C226.653 72.392 226.557 72.04 226.493 71.656C226.429 71.208 226.429 70.664 226.493 70.024C226.557 69.32 226.685 68.456 226.877 67.432C227.069 66.6 227.357 65.576 227.741 64.36C228.125 63.144 228.541 61.992 228.989 60.904C229.437 59.752 229.853 58.824 230.237 58.12C230.685 57.416 231.037 57.128 231.293 57.256C231.357 57.32 231.357 57.544 231.293 57.928C231.293 58.312 231.229 58.76 231.101 59.272C230.973 59.72 230.845 60.168 230.717 60.616C230.589 61.064 230.493 61.384 230.429 61.576C230.109 62.664 229.821 63.752 229.565 64.84C229.373 65.864 229.149 66.92 228.893 68.008Z" fill="url(#paint0_linear_4_16)"/>
<defs>
<linearGradient id="paint0_linear_4_16" x1="3.77005" y1="18" x2="263.933" y2="49.1639" gradientUnits="userSpaceOnUse">
<stop stop-color="#00C49A"/>
<stop offset="1" stop-color="#0E6BA8"/>
</linearGradient>
</defs>
</svg>
