<?xml version="1.0" encoding="UTF-8"?>
<svg version="1.1" xmlns="http://www.w3.org/2000/svg" width="1024" height="1024">
<path d="M0 0 C27.39 0 54.78 0 83 0 C83 0.66 83 1.32 83 2 C83.61202271 1.98722015 84.22404541 1.97444031 84.85461426 1.96127319 C90.82678736 1.89082844 96.55785605 2.27946387 102.46875 3.1015625 C103.3382579 3.21810684 104.20776581 3.33465118 105.10362244 3.45472717 C107.90390412 3.83483764 110.70209578 4.22778384 113.5 4.625 C114.46318146 4.76104645 115.42636292 4.8970929 116.41873169 5.03726196 C143.15076105 8.84621622 168.44914067 15.64114012 194.15185547 23.78564453 C197.21026595 24.7542942 200.27595523 25.69531633 203.34765625 26.62109375 C215.94420442 30.49878866 227.82246082 36.08329517 239.79394531 41.54980469 C242.63984756 42.83709218 245.49667425 44.08915949 248.3671875 45.3203125 C260.5301623 50.56793165 271.95660069 56.83162051 283.40185547 63.49023438 C286.45177697 65.26252478 289.51480678 67.0109193 292.58056641 68.75561523 C295.05682044 70.1649899 297.5285442 71.58223246 300 73 C300 70.03 300 67.06 300 64 C314.21105965 60.19313161 328.61234142 57.32798655 343.02554369 54.40579128 C346.56367608 53.68757688 350.10092843 52.96505313 353.63827515 52.24298096 C360.35636985 50.87224167 367.07514441 49.50486806 373.79421651 48.13892865 C385.6951737 45.71945062 397.59500301 43.29443327 409.49457431 40.86814928 C413.08585678 40.13593954 416.67722154 39.40413839 420.26877594 38.67326355 C433.69004037 35.94197433 447.11038711 33.20854972 460.50683594 30.35742188 C461.42423491 30.16240208 462.34163387 29.96738228 463.28683281 29.76645279 C467.35325569 28.90059203 471.41812352 28.02831852 475.48062134 27.14422607 C476.84302239 26.85161223 478.20543786 26.55906551 479.56787109 26.26660156 C480.70485443 26.01896057 481.84183777 25.77131958 483.01327515 25.51617432 C485.76111165 25.04128537 488.2228631 24.96127101 491 25 C491.00634791 26.74673901 491.00634791 26.74673901 491.01282406 28.52876568 C491.11428818 56.39676602 491.22013326 84.26474735 491.33111694 112.13271142 C491.34488062 115.58969486 491.3586086 119.04667844 491.37231445 122.50366211 C491.37640691 123.53566194 491.37640691 123.53566194 491.38058204 124.58851025 C491.42422724 135.61586214 491.46500415 146.64322275 491.50465261 157.67058965 C491.5456375 169.0511751 491.58992317 180.43174364 491.63687855 191.81230623 C491.66304031 198.17696585 491.68786596 204.54162328 491.70907402 210.9063015 C491.75243607 223.68833578 491.81273836 236.469869 491.92388469 249.25151402 C491.97037711 254.67074178 492.00585335 260.08954643 492.01536942 265.50897598 C492.02464349 270.69742327 492.06194541 275.88494836 492.11973584 281.07307494 C492.13606246 282.96449494 492.14261605 284.85603219 492.13798606 286.74751699 C492.11505719 299.23731616 494.01910161 308.52300619 499 320 C499.9514103 322.61127261 500.83236148 325.23769731 501.7109375 327.875 C502.08028412 328.97795662 502.08028412 328.97795662 502.45709229 330.10319519 C511.15583305 356.73506901 517.84786411 383.08590454 522 410.8125 C522.15424438 411.83604584 522.30848877 412.85959167 522.46740723 413.91415405 C522.90650498 416.86441256 523.33148201 419.81628901 523.75 422.76953125 C523.87767761 423.63921539 524.00535522 424.50889954 524.13690186 425.40493774 C524.98844987 431.62880693 525.13478953 437.72269267 525 444 C525.66 444 526.32 444 527 444 C527 471.39 527 498.78 527 527 C526.34 527 525.68 527 525 527 C525.02175293 528.01305962 525.02175293 528.01305962 525.04394531 529.04658508 C525.12308369 535.56204032 524.69564792 541.78912808 523.75 548.23046875 C523.61668274 549.17121246 523.48336548 550.11195618 523.3460083 551.08120728 C522.90937886 554.11854943 522.45725756 557.1531978 522 560.1875 C521.84349976 561.23255707 521.68699951 562.27761414 521.52575684 563.3543396 C517.38375198 590.72862287 510.49625929 616.88994509 501.7109375 643.125 C501.30075882 644.35435272 500.89058014 645.58370544 500.4679718 646.85031128 C499.34196999 650.12665588 498.02874513 653.29164897 496.66654491 656.47768688 C492.73005185 666.00235099 492.14834062 674.52526548 492.23046875 684.73046875 C492.22195828 686.47419179 492.21073659 688.21790328 492.19708252 689.96159363 C492.17320651 693.72553041 492.16774662 697.48886864 492.17697144 701.25286865 C492.19167125 707.29265598 492.16618425 713.33188054 492.13500977 719.37158203 C492.09786338 727.1062813 492.07136664 734.84089886 492.0561285 742.57567215 C492.02004225 760.05506838 491.88579319 777.53302774 491.734375 795.01171875 C491.72193986 796.45586071 491.7095122 797.90000273 491.69709206 799.34414482 C491.64763597 805.08670312 491.5979415 810.82925928 491.54769611 816.57181072 C491.41560921 831.70143787 491.29890278 846.83117429 491.18359375 861.9609375 C491.16474331 864.42164619 491.14588377 866.88235481 491.12701416 869.34306335 C491.0844824 874.8953741 491.04214204 880.44768628 491 886 C490.11468912 885.99409222 489.22937824 885.98818443 488.31723976 885.98209763 C466.70513543 885.84204322 445.09369412 885.76908365 423.48111916 885.76940536 C413.02900118 885.76796859 402.57783409 885.74441209 392.12597656 885.66748047 C383.00850495 885.60042824 373.89205872 885.57620485 364.77436006 885.60190511 C359.95290747 885.61403953 355.13357001 885.605753 350.31242752 885.5460434 C322.77316953 884.49084317 322.77316953 884.49084317 299.56010056 897.59023285 C297.11783343 899.7971598 294.44740285 901.23625126 291.5625 902.8125 C290.42554688 903.44027344 289.28859375 904.06804688 288.1171875 904.71484375 C287.4787793 905.06530762 286.84037109 905.41577148 286.18261719 905.77685547 C283.62272002 907.21142871 281.09852313 908.70170676 278.5703125 910.19140625 C249.51256264 927.09238926 218.26481019 940.56769788 186 950 C185.26767151 950.21420593 184.53534302 950.42841187 183.78082275 950.64910889 C161.70733704 957.07952058 139.93393678 962.64279171 117.12158203 965.78979492 C114.2398905 966.18890013 111.36022308 966.6008468 108.48046875 967.01367188 C106.61729557 967.27421152 104.75401763 967.53400331 102.890625 967.79296875 C102.04558411 967.91480026 101.20054321 968.03663177 100.32989502 968.16215515 C94.52404102 968.94896094 88.8556872 969.13506176 83 969 C83 969.66 83 970.32 83 971 C55.61 971 28.22 971 0 971 C0 970.34 0 969.68 0 969 C-0.91803406 969.01916977 -0.91803406 969.01916977 -1.85461426 969.03872681 C-7.82678736 969.10917156 -13.55785605 968.72053613 -19.46875 967.8984375 C-20.77301186 967.72362099 -20.77301186 967.72362099 -22.10362244 967.54527283 C-24.90390412 967.16516236 -27.70209578 966.77221616 -30.5 966.375 C-31.46318146 966.23895355 -32.42636292 966.1029071 -33.41873169 965.96273804 C-60.15076105 962.15378378 -85.44914067 955.35885988 -111.15185547 947.21435547 C-114.21026595 946.2457058 -117.27595523 945.30468367 -120.34765625 944.37890625 C-132.94420442 940.50121134 -144.82246082 934.91670483 -156.79394531 929.45019531 C-159.63984756 928.16290782 -162.49667425 926.91084051 -165.3671875 925.6796875 C-177.56263717 920.41805732 -189.01141216 914.131891 -200.48535156 907.45263672 C-202.61039128 906.22506523 -204.74549911 905.02527792 -206.8984375 903.84765625 C-224.62472828 894.07547031 -240.96931578 881.75716142 -256.9375 869.37109375 C-258.76321929 867.95755853 -260.59458726 866.55120096 -262.4375 865.16015625 C-267.50366309 861.31530033 -272.193886 857.16763057 -276.8359375 852.8203125 C-279.49530656 850.38240469 -282.2985623 848.15325909 -285.1171875 845.90234375 C-290.85464397 841.23418892 -296.08182497 836.19030509 -301.27197266 830.93383789 C-302.75756468 829.42984161 -304.25115205 827.93415095 -305.74609375 826.43945312 C-311.03925533 821.12659076 -316.12110261 815.69455152 -321 810 C-322.4132355 808.4551874 -323.82940409 806.91304675 -325.25 805.375 C-330.37402996 799.70103156 -335.02967014 793.69551648 -339.70849609 787.65576172 C-341.57000978 785.26922375 -343.47251008 782.91642821 -345.375 780.5625 C-354 769.79012346 -354 769.79012346 -354 767 C-354.66 767 -355.32 767 -356 767 C-357.61147916 764.6543687 -359.10050937 762.31202038 -360.5625 759.875 C-361.46651128 758.39526071 -362.371477 756.91610414 -363.27734375 755.4375 C-363.73351074 754.68984375 -364.18967773 753.9421875 -364.65966797 753.171875 C-366.23761207 750.61497324 -367.86715913 748.09557465 -369.51074219 745.58056641 C-373.87618842 738.89848766 -377.95685884 732.08181525 -381.83105469 725.10253906 C-382.6738988 723.58654626 -383.52149261 722.07319071 -384.37207031 720.56152344 C-391.63060505 707.64947649 -398.22045326 694.63746383 -404 681 C-404.7439502 679.24985596 -404.7439502 679.24985596 -405.50292969 677.46435547 C-407.13923028 673.60634772 -408.75902661 669.74155759 -410.375 665.875 C-410.76401489 664.94879349 -410.76401489 664.94879349 -411.16088867 664.00387573 C-413.86380501 657.55260992 -416.39605369 651.15618977 -418.30175781 644.42333984 C-419.05307477 641.81579714 -419.89683585 639.25172186 -420.76171875 636.6796875 C-429.17606587 611.47381004 -435.08299184 586.43635058 -439 560.1875 C-439.23095871 558.65340485 -439.23095871 558.65340485 -439.46658325 557.08831787 C-439.90585463 554.13722398 -440.33112199 551.18452043 -440.75 548.23046875 C-440.87769272 547.36073929 -441.00538544 546.49100983 -441.13694763 545.59492493 C-441.98842384 539.37109722 -442.1347885 533.27725939 -442 527 C-442.66 527 -443.32 527 -444 527 C-444 499.61 -444 472.22 -444 444 C-443.34 444 -442.68 444 -442 444 C-442.02175293 442.98694038 -442.02175293 442.98694038 -442.04394531 441.95341492 C-442.12308369 435.43795968 -441.69564792 429.21087192 -440.75 422.76953125 C-440.61668274 421.82878754 -440.48336548 420.88804382 -440.3460083 419.91879272 C-439.90937886 416.88145057 -439.45725756 413.8468022 -439 410.8125 C-438.76524963 409.2449144 -438.76524963 409.2449144 -438.52575684 407.6456604 C-432.74956694 369.47113765 -422.42818082 330.73422769 -406.3125 295.5 C-405.98564209 294.77699707 -405.65878418 294.05399414 -405.32202148 293.30908203 C-404.60690175 291.73010029 -403.88946662 290.15216549 -403.16992188 288.57519531 C-401.88691308 285.75107661 -400.6230633 282.91875102 -399.359375 280.0859375 C-394.45317421 269.14964851 -389.38673029 258.45805797 -383.26904297 248.14648438 C-381.82011554 245.69573986 -380.39657937 243.23097772 -378.97265625 240.765625 C-372.37675589 229.40767093 -365.44723501 218.35561086 -358.00878906 207.53027344 C-356.93149566 205.96207542 -356.93149566 205.96207542 -356 204 C-355.34 204 -354.68 204 -354 204 C-353.63261719 203.20142578 -353.63261719 203.20142578 -353.2578125 202.38671875 C-348.97943602 194.26843294 -343.15501122 186.87801804 -336.94921875 180.16015625 C-334.93725042 177.93045989 -333.09462191 175.61948341 -331.25 173.25 C-327.5433633 168.55638904 -323.56547381 164.17501217 -319.47558594 159.81738281 C-316.82401746 156.99059268 -314.23605036 154.128768 -311.70703125 151.19140625 C-307.58156801 146.45461665 -303.19238712 142.00088296 -298.75 137.5625 C-297.90880615 136.72138672 -297.0676123 135.88027344 -296.20092773 135.01367188 C-291.17767433 130.03641453 -286.11879197 125.37606625 -280.53515625 121.03515625 C-277.55412293 118.6420617 -274.78319156 116.05348774 -272 113.4375 C-267.59872642 109.33497443 -263.03793575 105.68699181 -258.11328125 102.23046875 C-254.92555243 99.94666303 -251.82876934 97.56973881 -248.73071289 95.16674805 C-242.55944608 90.38278363 -236.4098744 85.77162464 -229.734375 81.703125 C-227.21918635 80.13652179 -224.79898847 78.4699851 -222.37182617 76.77172852 C-214.41182561 71.26147236 -206.03262882 66.54273931 -197.5625 61.875 C-196.96278381 61.54355988 -196.36306763 61.21211975 -195.74517822 60.87063599 C-160.06907834 41.20060632 -123.22781737 26.52852937 -84 15.5625 C-83.24881897 15.35249359 -82.49763794 15.14248718 -81.72369385 14.92611694 C-65.99299917 10.55422027 -50.29461709 7.44130282 -34.12158203 5.21020508 C-31.2398905 4.81109987 -28.36022308 4.3991532 -25.48046875 3.98632812 C-23.61729557 3.72578848 -21.75401763 3.46599669 -19.890625 3.20703125 C-19.04558411 3.08519974 -18.20054321 2.96336823 -17.32989502 2.83784485 C-11.52404102 2.05103906 -5.8556872 1.86493824 0 2 C0 1.34 0 0.68 0 0 Z M301 77 C298.22423946 79.77576054 298.92989427 87.06522998 298.89256954 90.85749054 C298.89569037 92.69736853 298.90441587 94.53724258 298.91770935 96.3770752 C298.92093848 97.39663158 298.92416761 98.41618796 298.92749459 99.46664 C298.93951935 102.86907509 298.95890249 106.27142751 298.97827148 109.67382812 C298.98841961 112.11832502 298.9981127 114.56282384 299.00738525 117.00732422 C299.02834291 122.26304347 299.05245545 127.5187381 299.07946587 132.77442932 C299.1185124 140.37317911 299.15182557 147.97194563 299.18376113 155.57072824 C299.23573523 167.90068772 299.29231501 180.23062155 299.35180664 192.56054688 C299.40957079 204.53449507 299.46515622 216.50845013 299.51782227 228.48242188 C299.52107198 229.22109499 299.5243217 229.95976811 299.5276699 230.72082525 C299.54396016 234.4267097 299.56020771 238.13259432 299.57643402 241.83847904 C299.71099988 272.55901787 299.85312384 303.27951744 300 334 C297.43883094 331.53046012 295.71421651 329.05647574 293.875 326 C288.06756783 316.75701322 281.42287408 308.92059794 273 302 C271.74803604 300.87718601 270.49807883 299.75213098 269.25 298.625 C233.28627879 267.45181308 183.27207965 254.20229447 136.28759766 254.01464844 C133.78749285 253.99863923 131.29200439 253.92550657 128.79296875 253.8515625 C92.1840775 253.02020392 54.88271455 258.99432919 21 273 C19.98711914 273.41233887 18.97423828 273.82467773 17.93066406 274.24951172 C-4.95682621 283.6524257 -27.00317609 294.42589981 -46.04638672 310.37890625 C-48.50672569 312.4204772 -51.02720188 314.37618827 -53.55712891 316.33032227 C-60.89213996 322.0014386 -67.96843277 327.95933113 -75 334 C-76.05574219 334.88558594 -76.05574219 334.88558594 -77.1328125 335.7890625 C-82.09882022 340.00705232 -86.64880128 344.60626421 -91.21826172 349.24389648 C-94.08197452 352.13715354 -96.95580634 354.87475698 -100.125 357.4375 C-105.98323008 362.45185142 -110.40424671 368.85795638 -115 375 C-115.51224121 375.67466309 -116.02448242 376.34932617 -116.55224609 377.04443359 C-125.70790918 389.13442321 -133.52809963 401.81383259 -141 415 C-141.38494629 415.66531738 -141.76989258 416.33063477 -142.16650391 417.01611328 C-166.85192262 459.72617372 -178.16304247 510.73211177 -179.625 559.6875 C-179.64679321 560.41542755 -179.66858643 561.1433551 -179.69104004 561.89334106 C-181.6304201 629.69284441 -164.66384481 699.22746726 -125 755 C-124.60522461 755.5578418 -124.21044922 756.11568359 -123.80371094 756.69042969 C-110.1919725 775.84653755 -94.9555906 793.07632527 -78.4375 809.75 C-77.57511719 810.62551514 -76.71273437 811.50103027 -75.82421875 812.40307617 C-69.86329456 818.37133862 -63.59266006 823.74523365 -57 829 C-55.82628414 829.97670415 -54.65521213 830.95660564 -53.48828125 831.94140625 C-37.81107536 844.97523459 -20.66529207 856.71141711 -2 865 C-1.07703125 865.42925781 -0.1540625 865.85851562 0.796875 866.30078125 C16.75762788 873.38163549 33.71562891 878.11733444 50.625 882.3125 C51.28914917 882.47730865 51.95329834 882.64211731 52.63757324 882.81192017 C57.08394197 883.90877833 61.53986455 884.96075371 66 886 C67.13969238 886.27610107 68.27938477 886.55220215 69.45361328 886.83666992 C78.80534134 889.00131006 88.07427462 889.98748469 97.625 890.6875 C98.86772675 890.7803125 98.86772675 890.7803125 100.13555908 890.875 C157.606395 895.05519197 209.23173153 890.54177797 259 859 C260.44301926 858.12640902 261.8882441 857.25644806 263.3359375 856.390625 C277.26612606 847.9858185 290.65913712 838.60881195 303 828 C303.88042969 827.25363281 304.76085937 826.50726562 305.66796875 825.73828125 C308.92006599 822.96050161 308.92006599 822.96050161 312 820 C312 819.34 312 818.68 312 818 C312.66 818 313.32 818 314 818 C314 840.11 314 862.22 314 885 C321.44345486 880.93993371 327.2892219 877.51399199 333.5 872.125 C334.97311414 870.87636968 336.44837031 869.63026201 337.92578125 868.38671875 C338.62654785 867.79681152 339.32731445 867.2069043 340.04931641 866.59912109 C342.5098281 864.58205582 345.07280506 862.74886179 347.6875 860.9375 C353.44045811 856.86833451 358.45085523 852.09455117 363.54296875 847.24609375 C365.8668352 845.03614557 368.24330306 842.91695067 370.6796875 840.83203125 C375.79276895 836.38702145 380.5752544 831.61079374 385.36303711 826.82226562 C386.92608734 825.26139673 388.49697365 823.70872112 390.06835938 822.15625 C395.75161222 816.50393457 401.04624513 810.74585452 406.02197266 804.45166016 C408.06907315 801.91438749 410.22347225 799.5171856 412.4375 797.125 C426.07949945 782.09288316 437.78405783 764.83557665 448.81591797 747.82568359 C449.59761436 746.62042057 450.38302894 745.41755991 451.17236328 744.21728516 C461.41985521 728.59699106 470.05603248 711.97213142 478.36360979 695.25709856 C479.38915682 693.21583252 480.43112152 691.18264322 481.49688292 689.16208231 C491.41987416 670.1969258 492.60825312 653.63443108 492.40865326 632.77011454 C492.37917499 628.40120485 492.41417729 624.03268485 492.4402771 619.66381836 C492.48112889 611.14415868 492.46372301 602.62561681 492.42468801 594.10598709 C492.39418335 587.17497642 492.38633003 580.24426687 492.39409637 573.31319618 C492.39520449 572.32087669 492.39631261 571.3285572 492.39745431 570.30616743 C492.39982704 568.2893706 492.40226199 566.27257384 492.40475842 564.25577716 C492.42569697 545.41893328 492.38115055 526.58269698 492.31252262 507.74599466 C492.2551728 491.62773785 492.24971663 475.51016183 492.28320312 459.3918457 C492.3221805 440.60755168 492.33216147 421.8236356 492.29417014 403.03932649 C492.29016339 401.03212604 492.28617956 399.02492554 492.28221893 397.01772499 C492.28024048 396.03050582 492.27826202 395.04328665 492.27622361 394.02615174 C492.2642114 387.11115374 492.27215668 380.19634763 492.28778839 373.28136253 C492.30615925 364.8435598 492.29146477 356.4065439 492.23615757 347.96889117 C492.20875555 343.67417201 492.19493541 339.38068093 492.22089005 335.08592415 C492.31766458 317.37742475 491.9022272 301.95433139 483.08610106 286.03786814 C481.37753624 282.83206167 480.09042331 279.49988825 478.75 276.125 C474.48492133 266.23971425 468.94355601 257.01827693 463.55859375 247.71337891 C461.74882393 244.56272386 459.99081857 241.38582656 458.23828125 238.203125 C455.08015432 232.48525308 451.78356128 226.96802175 447.9375 221.6796875 C445.92237716 218.8926426 443.98433733 216.06180389 442.05029297 213.21826172 C436.89991295 205.65413731 431.58867339 198.24914512 426 191 C425.58282715 190.45666016 425.1656543 189.91332031 424.73583984 189.35351562 C417.78156792 180.31476575 410.54792803 171.54931152 403 163 C402.55672363 162.49742676 402.11344727 161.99485352 401.65673828 161.47705078 C394.64212022 153.58331609 387.20280289 146.10160783 379.75 138.625 C379.04221405 137.9131958 379.04221405 137.9131958 378.32012939 137.18701172 C372.72289134 131.56567806 367.04028084 126.14141992 361 121 C359.8465965 119.99209686 358.69422248 118.98301421 357.54296875 117.97265625 C351.49046114 112.70779158 345.39802535 107.68669384 338.8359375 103.05859375 C336.12385604 101.08990652 333.51645739 99.03397865 330.90722656 96.93310547 C319.88662761 87.11269375 319.88662761 87.11269375 307 82 C307 81.34 307 80.68 307 80 C305.02 79.01 303.04 78.02 301 77 Z " fill="#096AD8" transform="translate(469,26)"/>
<path d="M0 0 C27.39 0 54.78 0 83 0 C83 0.66 83 1.32 83 2 C83.61202271 1.98722015 84.22404541 1.97444031 84.85461426 1.96127319 C90.82678736 1.89082844 96.55785605 2.27946387 102.46875 3.1015625 C103.3382579 3.21810684 104.20776581 3.33465118 105.10362244 3.45472717 C107.90390412 3.83483764 110.70209578 4.22778384 113.5 4.625 C114.46318146 4.76104645 115.42636292 4.8970929 116.41873169 5.03726196 C143.15076105 8.84621622 168.44914067 15.64114012 194.15185547 23.78564453 C197.21026595 24.7542942 200.27595523 25.69531633 203.34765625 26.62109375 C215.94420442 30.49878866 227.82246082 36.08329517 239.79394531 41.54980469 C242.63984756 42.83709218 245.49667425 44.08915949 248.3671875 45.3203125 C260.53757533 50.57112995 271.95827078 56.84302737 283.40625 63.51220703 C285.76094985 64.86287918 288.13371226 66.16097986 290.53125 67.43359375 C291.5214917 67.96714478 291.5214917 67.96714478 292.53173828 68.51147461 C294.23222691 69.42343202 295.94002215 70.32173001 297.6484375 71.21875 C300 73 300 73 300.9140625 75.21875 C301.14567454 82.71455793 301.14567454 82.71455793 300 86 C297.421875 87.96875 297.421875 87.96875 293.75 89.5 C292.27906237 90.15761379 290.81191067 90.82373045 289.34765625 91.49609375 C288.50992676 91.87749512 287.67219727 92.25889648 286.80908203 92.65185547 C281.1386829 95.37321337 275.67880346 98.50035443 270.1875 101.5625 C268.92564206 102.26270568 267.66359605 102.96257256 266.40136719 103.66210938 C263.21523318 105.42884753 260.03128901 107.19948856 256.8480835 108.97149658 C253.94783875 110.58555333 251.04612808 112.19696925 248.14453125 113.80859375 C244.81823423 115.65631995 241.49212563 117.50437927 238.16674805 119.35375977 C229.95411616 123.92005244 221.72950265 128.46422093 213.5 133 C199.64889395 140.6347533 185.82157204 148.31190237 172 156 C157.56889842 164.02714174 143.12972323 172.03899193 128.6675415 180.00997925 C119.93555554 184.82303501 111.21348898 189.65350437 102.5 194.5 C92.5672747 200.02464229 82.62101873 205.52413752 72.66699219 211.01025391 C63.93519182 215.82322227 55.21331002 220.65360391 46.5 225.5 C37.17698064 230.68552014 27.84295489 235.85052972 18.5 241 C4.64889395 248.6347533 -9.17842796 256.31190237 -23 264 C-37.43110158 272.02714174 -51.87027677 280.03899193 -66.3324585 288.00997925 C-75.06444446 292.82303501 -83.78651102 297.65350437 -92.5 302.5 C-102.4327253 308.02464229 -112.37898127 313.52413752 -122.33300781 319.01025391 C-131.06480818 323.82322227 -139.78668998 328.65360391 -148.5 333.5 C-157.82301936 338.68552014 -167.15704511 343.85052972 -176.5 349 C-190.35110605 356.6347533 -204.17842796 364.31190237 -218 372 C-232.43110158 380.02714174 -246.87027677 388.03899193 -261.3324585 396.00997925 C-270.06444446 400.82303501 -278.78651102 405.65350437 -287.5 410.5 C-297.4327253 416.02464229 -307.37898127 421.52413752 -317.33300781 427.01025391 C-326.06480818 431.82322227 -334.78668998 436.65360391 -343.5 441.5 C-352.82301936 446.68552014 -362.15704511 451.85052972 -371.5 457 C-380.8835302 462.17221786 -390.25942252 467.35781059 -399.625 472.5625 C-401.25900757 473.46959717 -401.25900757 473.46959717 -402.92602539 474.39501953 C-408.17112959 477.30840656 -413.4122369 480.22855685 -418.64324951 483.16716003 C-421.13857108 484.56833822 -423.63581316 485.96607287 -426.13323975 487.36349487 C-427.32500789 488.03162442 -428.51582461 488.70145425 -429.70562744 489.37307739 C-431.35215888 490.3024161 -433.00217816 491.22556712 -434.65234375 492.1484375 C-435.59070068 492.67614746 -436.52905762 493.20385742 -437.49584961 493.74755859 C-440 495 -440 495 -444 496 C-444 478.84 -444 461.68 -444 444 C-443.34 444 -442.68 444 -442 444 C-442.02175293 442.98694038 -442.02175293 442.98694038 -442.04394531 441.95341492 C-442.12308369 435.43795968 -441.69564792 429.21087192 -440.75 422.76953125 C-440.61668274 421.82878754 -440.48336548 420.88804382 -440.3460083 419.91879272 C-439.90937886 416.88145057 -439.45725756 413.8468022 -439 410.8125 C-438.76524963 409.2449144 -438.76524963 409.2449144 -438.52575684 407.6456604 C-432.74956694 369.47113765 -422.42818082 330.73422769 -406.3125 295.5 C-405.98564209 294.77699707 -405.65878418 294.05399414 -405.32202148 293.30908203 C-404.60690175 291.73010029 -403.88946662 290.15216549 -403.16992188 288.57519531 C-401.88691308 285.75107661 -400.6230633 282.91875102 -399.359375 280.0859375 C-394.45317421 269.14964851 -389.38673029 258.45805797 -383.26904297 248.14648438 C-381.82011554 245.69573986 -380.39657937 243.23097772 -378.97265625 240.765625 C-372.37675589 229.40767093 -365.44723501 218.35561086 -358.00878906 207.53027344 C-356.93149566 205.96207542 -356.93149566 205.96207542 -356 204 C-355.34 204 -354.68 204 -354 204 C-353.63261719 203.20142578 -353.63261719 203.20142578 -353.2578125 202.38671875 C-348.97943602 194.26843294 -343.15501122 186.87801804 -336.94921875 180.16015625 C-334.93725042 177.93045989 -333.09462191 175.61948341 -331.25 173.25 C-327.5433633 168.55638904 -323.56547381 164.17501217 -319.47558594 159.81738281 C-316.82401746 156.99059268 -314.23605036 154.128768 -311.70703125 151.19140625 C-307.58156801 146.45461665 -303.19238712 142.00088296 -298.75 137.5625 C-297.90880615 136.72138672 -297.0676123 135.88027344 -296.20092773 135.01367188 C-291.17767433 130.03641453 -286.11879197 125.37606625 -280.53515625 121.03515625 C-277.55412293 118.6420617 -274.78319156 116.05348774 -272 113.4375 C-267.59872642 109.33497443 -263.03793575 105.68699181 -258.11328125 102.23046875 C-254.92555243 99.94666303 -251.82876934 97.56973881 -248.73071289 95.16674805 C-242.55944608 90.38278363 -236.4098744 85.77162464 -229.734375 81.703125 C-227.21918635 80.13652179 -224.79898847 78.4699851 -222.37182617 76.77172852 C-214.41182561 71.26147236 -206.03262882 66.54273931 -197.5625 61.875 C-196.96278381 61.54355988 -196.36306763 61.21211975 -195.74517822 60.87063599 C-160.06907834 41.20060632 -123.22781737 26.52852937 -84 15.5625 C-83.24881897 15.35249359 -82.49763794 15.14248718 -81.72369385 14.92611694 C-65.99299917 10.55422027 -50.29461709 7.44130282 -34.12158203 5.21020508 C-31.2398905 4.81109987 -28.36022308 4.3991532 -25.48046875 3.98632812 C-23.61729557 3.72578848 -21.75401763 3.46599669 -19.890625 3.20703125 C-19.04558411 3.08519974 -18.20054321 2.96336823 -17.32989502 2.83784485 C-11.52404102 2.05103906 -5.8556872 1.86493824 0 2 C0 1.34 0 0.68 0 0 Z " fill="#147FE9" transform="translate(469,26)"/>
<path d="M0 0 C0.79341797 0.00215515 1.58683594 0.0043103 2.40429688 0.00653076 C14.26148465 0.05818501 25.75558164 0.42458909 37.3125 3.3125 C38.48377441 3.59456299 38.48377441 3.59456299 39.67871094 3.88232422 C67.23059263 10.72944073 89.71471221 25.10514372 110.3125 44.3125 C111.10269531 45.03695312 111.89289063 45.76140625 112.70703125 46.5078125 C140.25419831 72.76440146 156.27864334 109.96214086 157.59765625 147.84375 C158.43805707 190.149949 146.11822451 229.92429391 116.59155273 260.92236328 C115.1698116 262.39022121 113.74133995 263.85155129 112.3125 265.3125 C111.24515625 266.47265625 111.24515625 266.47265625 110.15625 267.65625 C90.92875807 288.0669722 64.37607886 301.77377235 37.3125 308.3125 C36.31283203 308.5602417 36.31283203 308.5602417 35.29296875 308.81298828 C13.08401424 314.02562396 -14.56447041 313.77073168 -36.6875 308.3125 C-37.38713867 308.14621094 -38.08677734 307.97992187 -38.80761719 307.80859375 C-78.72839576 298.03207655 -111.85900156 271.02720185 -133.375 236.5 C-153.96464017 202.45765233 -160.91456013 159.16727099 -151.6875 120.3125 C-151.49945801 119.49346191 -151.31141602 118.67442383 -151.11767578 117.83056641 C-144.48557108 89.81955298 -130.19124899 67.18661044 -110.6875 46.3125 C-109.87796875 45.43722656 -109.0684375 44.56195313 -108.234375 43.66015625 C-79.65864265 13.84386067 -40.77684189 -0.19961438 0 0 Z " fill="#0969D7" transform="translate(621.6875,442.6875)"/>
<path d="M0 0 C14.52 0 29.04 0 44 0 C37.25171467 7.87299955 37.25171467 7.87299955 34.12524414 10.97241211 C33.4275441 11.66680893 32.72984406 12.36120575 32.01100159 13.0766449 C31.27647263 13.80287552 30.54194366 14.52910614 29.78515625 15.27734375 C29.01119003 16.04752335 28.23722382 16.81770294 27.43980408 17.61122131 C24.15678267 20.87802854 20.86782055 24.13883041 17.5793457 27.40014648 C15.16668469 29.79461138 12.75711573 32.19215797 10.34765625 34.58984375 C9.24889915 35.67615334 9.24889915 35.67615334 8.12794495 36.78440857 C4.91980738 39.97742569 1.79871002 43.18351739 -1.13305664 46.63305664 C-6.17237488 52.47611977 -11.72365336 57.83339328 -17.1934967 63.2686615 C-19.25671313 65.31897573 -21.31666812 67.37251866 -23.37585449 69.42687988 C-28.48797449 74.52571466 -33.60555109 79.61906133 -38.72296143 84.71258545 C-43.05793946 89.02775217 -47.39080842 93.34501626 -51.72096252 97.6650238 C-53.73895718 99.67659187 -55.75996659 101.68509595 -57.78112793 103.69348145 C-63.05627068 108.94777725 -68.25229042 114.17865376 -73.07800293 119.85314941 C-77.50502866 124.79809076 -82.30154464 129.4069625 -87.00830078 134.08346558 C-89.03791415 136.10017306 -91.06426258 138.12011221 -93.08984375 140.14086914 C-98.11848702 145.15622945 -103.15258791 150.16610008 -108.18652344 155.17614746 C-112.45104273 159.42085288 -116.71345102 163.66765742 -120.97314453 167.91720581 C-122.95789986 169.89553614 -124.94567023 171.87080129 -126.93359375 173.84594727 C-133.90679897 180.73104062 -133.90679897 180.73104062 -140.48632812 187.98632812 C-145.37710582 193.73392324 -150.84421069 198.95318856 -156.1934967 204.2686615 C-158.25671313 206.31897573 -160.31666812 208.37251866 -162.37585449 210.42687988 C-167.48797449 215.52571466 -172.60555109 220.61906133 -177.72296143 225.71258545 C-182.05793946 230.02775217 -186.39080842 234.34501626 -190.72096252 238.6650238 C-192.73895718 240.67659187 -194.75996659 242.68509595 -196.78112793 244.69348145 C-202.05627068 249.94777725 -207.25229042 255.17865376 -212.07800293 260.85314941 C-216.50502866 265.79809076 -221.30154464 270.4069625 -226.00830078 275.08346558 C-228.03791415 277.10017306 -230.06426258 279.12011221 -232.08984375 281.14086914 C-237.11848702 286.15622945 -242.15258791 291.16610008 -247.18652344 296.17614746 C-251.45104273 300.42085288 -255.71345102 304.66765742 -259.97314453 308.91720581 C-261.95789986 310.89553614 -263.94567023 312.87080129 -265.93359375 314.84594727 C-272.90679897 321.73104062 -272.90679897 321.73104062 -279.48632812 328.98632812 C-284.37710582 334.73392324 -289.84421069 339.95318856 -295.1934967 345.2686615 C-297.25671313 347.31897573 -299.31666812 349.37251866 -301.37585449 351.42687988 C-306.48797449 356.52571466 -311.60555109 361.61906133 -316.72296143 366.71258545 C-321.05793946 371.02775217 -325.39080842 375.34501626 -329.72096252 379.6650238 C-331.73895718 381.67659187 -333.75996659 383.68509595 -335.78112793 385.69348145 C-342.83962539 392.65953604 -342.83962539 392.65953604 -349.5 400 C-354.38490592 405.74396638 -359.84889622 410.95784447 -365.1934967 416.2686615 C-367.25671313 418.31897573 -369.31666812 420.37251866 -371.37585449 422.42687988 C-376.48797449 427.52571466 -381.60555109 432.61906133 -386.72296143 437.71258545 C-391.05793946 442.02775217 -395.39080842 446.34501626 -399.72096252 450.6650238 C-401.73895718 452.67659187 -403.75996659 454.68509595 -405.78112793 456.69348145 C-411.2339098 462.12469007 -416.64181623 467.52969795 -421.62860107 473.39929199 C-423.65193052 475.76093862 -425.82678749 477.95648291 -428.0234375 480.15625 C-428.89871094 481.0328125 -429.77398437 481.909375 -430.67578125 482.8125 C-431.56652344 483.699375 -432.45726562 484.58625 -433.375 485.5 C-434.28894531 486.4178125 -435.20289063 487.335625 -436.14453125 488.28125 C-437.01207031 489.1475 -437.87960937 490.01375 -438.7734375 490.90625 C-439.56153809 491.69322266 -440.34963867 492.48019531 -441.16162109 493.29101562 C-443 495 -443 495 -444 495 C-444 478.17 -444 461.34 -444 444 C-443.34 444 -442.68 444 -442 444 C-442.02175293 442.98694038 -442.02175293 442.98694038 -442.04394531 441.95341492 C-442.12308369 435.43795968 -441.69564792 429.21087192 -440.75 422.76953125 C-440.61668274 421.82878754 -440.48336548 420.88804382 -440.3460083 419.91879272 C-439.90937886 416.88145057 -439.45725756 413.8468022 -439 410.8125 C-438.76524963 409.2449144 -438.76524963 409.2449144 -438.52575684 407.6456604 C-432.74956694 369.47113765 -422.42818082 330.73422769 -406.3125 295.5 C-405.98564209 294.77699707 -405.65878418 294.05399414 -405.32202148 293.30908203 C-404.60690175 291.73010029 -403.88946662 290.15216549 -403.16992188 288.57519531 C-401.88691308 285.75107661 -400.6230633 282.91875102 -399.359375 280.0859375 C-394.45317421 269.14964851 -389.38673029 258.45805797 -383.26904297 248.14648438 C-381.82011554 245.69573986 -380.39657937 243.23097772 -378.97265625 240.765625 C-372.37675589 229.40767093 -365.44723501 218.35561086 -358.00878906 207.53027344 C-356.93149566 205.96207542 -356.93149566 205.96207542 -356 204 C-355.34 204 -354.68 204 -354 204 C-353.63261719 203.20142578 -353.63261719 203.20142578 -353.2578125 202.38671875 C-348.97943602 194.26843294 -343.15501122 186.87801804 -336.94921875 180.16015625 C-334.93725042 177.93045989 -333.09462191 175.61948341 -331.25 173.25 C-327.5433633 168.55638904 -323.56547381 164.17501217 -319.47558594 159.81738281 C-316.82401746 156.99059268 -314.23605036 154.128768 -311.70703125 151.19140625 C-307.58156801 146.45461665 -303.19238712 142.00088296 -298.75 137.5625 C-297.90880615 136.72138672 -297.0676123 135.88027344 -296.20092773 135.01367188 C-291.17767433 130.03641453 -286.11879197 125.37606625 -280.53515625 121.03515625 C-277.55412293 118.6420617 -274.78319156 116.05348774 -272 113.4375 C-267.59872642 109.33497443 -263.03793575 105.68699181 -258.11328125 102.23046875 C-254.92555243 99.94666303 -251.82876934 97.56973881 -248.73071289 95.16674805 C-242.55944608 90.38278363 -236.4098744 85.77162464 -229.734375 81.703125 C-227.21918635 80.13652179 -224.79898847 78.4699851 -222.37182617 76.77172852 C-214.41182561 71.26147236 -206.03262882 66.54273931 -197.5625 61.875 C-196.96278381 61.54355988 -196.36306763 61.21211975 -195.74517822 60.87063599 C-160.06907834 41.20060632 -123.22781737 26.52852937 -84 15.5625 C-83.24881897 15.35249359 -82.49763794 15.14248718 -81.72369385 14.92611694 C-65.99299917 10.55422027 -50.29461709 7.44130282 -34.12158203 5.21020508 C-31.2398905 4.81109987 -28.36022308 4.3991532 -25.48046875 3.98632812 C-23.61729557 3.72578848 -21.75401763 3.46599669 -19.890625 3.20703125 C-19.04558411 3.08519974 -18.20054321 2.96336823 -17.32989502 2.83784485 C-11.52404102 2.05103906 -5.8556872 1.86493824 0 2 C0 1.34 0 0.68 0 0 Z " fill="#2997F1" transform="translate(469,26)"/>
<path d="M0 0 C0.00423194 1.16449267 0.00846388 2.32898535 0.01282406 3.52876568 C0.11428818 31.39676602 0.22013326 59.26474735 0.33111694 87.13271142 C0.34488062 90.58969486 0.3586086 94.04667844 0.37231445 97.50366211 C0.37504276 98.191662 0.37777106 98.87966188 0.38058204 99.58851025 C0.42422724 110.61586214 0.46500415 121.64322275 0.50465261 132.67058965 C0.5456375 144.0511751 0.58992317 155.43174364 0.63687855 166.81230623 C0.66304031 173.17696585 0.68786596 179.54162328 0.70907402 185.9063015 C0.75243607 198.68833578 0.81273836 211.469869 0.92388469 224.25151402 C0.97037711 229.67074178 1.00585335 235.08954643 1.01536942 240.50897598 C1.02464349 245.69742327 1.06194541 250.88494836 1.11973584 256.07307494 C1.13606246 257.96449494 1.14261605 259.85603219 1.13798606 261.74751699 C1.11505719 274.23731616 3.01910161 283.52300619 8 295 C8.9514103 297.61127261 9.83236148 300.23769731 10.7109375 302.875 C11.08028412 303.97795662 11.08028412 303.97795662 11.45709229 305.10319519 C20.15583305 331.73506901 26.84786411 358.08590454 31 385.8125 C31.15424438 386.83604584 31.30848877 387.85959167 31.46740723 388.91415405 C31.90650498 391.86441256 32.33148201 394.81628901 32.75 397.76953125 C32.94151642 399.07405746 32.94151642 399.07405746 33.13690186 400.40493774 C33.98844987 406.62880693 34.13478953 412.72269267 34 419 C34.66 419 35.32 419 36 419 C36 446.39 36 473.78 36 502 C35.34 502 34.68 502 34 502 C34.01450195 502.67537308 34.02900391 503.35074615 34.04394531 504.04658508 C34.12308369 510.56204032 33.69564792 516.78912808 32.75 523.23046875 C32.55002411 524.64158432 32.55002411 524.64158432 32.3460083 526.08120728 C31.90937886 529.11854943 31.45725756 532.1531978 31 535.1875 C30.76524963 536.7550856 30.76524963 536.7550856 30.52575684 538.3543396 C26.38375198 565.72862287 19.49625929 591.88994509 10.7109375 618.125 C10.30075882 619.35435272 9.89058014 620.58370544 9.4679718 621.85031128 C8.34196999 625.12665588 7.02874513 628.29164897 5.66654491 631.47768688 C1.73005185 641.00235099 1.14834062 649.52526548 1.23046875 659.73046875 C1.22195828 661.47419179 1.21073659 663.21790328 1.19708252 664.96159363 C1.17320651 668.72553041 1.16774662 672.48886864 1.17697144 676.25286865 C1.19167125 682.29265598 1.16618425 688.33188054 1.13500977 694.37158203 C1.09786338 702.1062813 1.07136664 709.84089886 1.0561285 717.57567215 C1.02004225 735.05506838 0.88579319 752.53302774 0.734375 770.01171875 C0.72193986 771.45586071 0.7095122 772.90000273 0.69709206 774.34414482 C0.64763597 780.08670312 0.5979415 785.82925928 0.54769611 791.57181072 C0.41560921 806.70143787 0.29890278 821.83117429 0.18359375 836.9609375 C0.16474331 839.42164619 0.14588377 841.88235481 0.12701416 844.34306335 C0.0844824 849.8953741 0.04214204 855.44768628 0 861 C-22.65223126 861.04666562 -45.30445463 861.08196211 -67.95672417 861.10362434 C-78.47393269 861.11394864 -88.99111139 861.12803092 -99.50830078 861.15087891 C-108.67223032 861.17077757 -117.83613827 861.18370804 -127.00008881 861.18817699 C-131.85490282 861.19079036 -136.70965505 861.19695671 -141.56444931 861.21146011 C-146.12963382 861.22498843 -150.69473082 861.22923232 -155.25993347 861.22621536 C-156.93938293 861.22676766 -158.61883518 861.23077331 -160.29826736 861.23841095 C-162.58354674 861.24829803 -164.86849166 861.24599198 -167.15377808 861.24050903 C-169.07571645 861.24327441 -169.07571645 861.24327441 -171.03648186 861.24609566 C-174 861 -174 861 -176 859 C-175.3915625 858.64550781 -174.783125 858.29101562 -174.15625 857.92578125 C-167.25932052 853.73691084 -161.11530999 848.97236949 -154.91064453 843.83129883 C-151.15779345 840.72854443 -147.37749595 837.78049498 -143.375 835 C-137.60694562 830.90233241 -132.57017927 826.11461508 -127.45703125 821.24609375 C-125.12262177 819.02625037 -122.73520075 816.89657665 -120.2890625 814.80078125 C-115.33939561 810.49783438 -110.69925176 805.88531074 -106.06420898 801.24951172 C-104.57358385 799.76106763 -103.07512983 798.28082723 -101.57617188 796.80078125 C-96.02358693 791.27984296 -90.86383473 785.61888431 -85.99560547 779.46923828 C-83.94131822 776.92739081 -81.78193279 774.52319114 -79.5625 772.125 C-65.92050055 757.09288316 -54.21594217 739.83557665 -43.18408203 722.82568359 C-42.40238564 721.62042057 -41.61697106 720.41755991 -40.82763672 719.21728516 C-30.58014479 703.59699106 -21.94396752 686.97213142 -13.63639021 670.25709856 C-12.61084318 668.21583252 -11.56887848 666.18264322 -10.50311708 664.16208231 C-0.58012584 645.1969258 0.60825312 628.63443108 0.40865326 607.77011454 C0.37917499 603.40120485 0.41417729 599.03268485 0.4402771 594.66381836 C0.48112889 586.14415868 0.46372301 577.62561681 0.42468801 569.10598709 C0.39418335 562.17497642 0.38633003 555.24426687 0.39409637 548.31319618 C0.39575855 546.82471695 0.39575855 546.82471695 0.39745431 545.30616743 C0.39982704 543.2893706 0.40226199 541.27257384 0.40475842 539.25577716 C0.42569697 520.41893328 0.38115055 501.58269698 0.31252262 482.74599466 C0.2551728 466.62773785 0.24971663 450.51016183 0.28320312 434.3918457 C0.3221805 415.60755168 0.33216147 396.8236356 0.29417014 378.03932649 C0.29016339 376.03212604 0.28617956 374.02492554 0.28221893 372.01772499 C0.28024048 371.03050582 0.27826202 370.04328665 0.27622361 369.02615174 C0.2642114 362.11115374 0.27215668 355.19634763 0.28778839 348.28136253 C0.30615925 339.8435598 0.29146477 331.4065439 0.23615757 322.96889117 C0.20875555 318.67417201 0.19493541 314.38068093 0.22089005 310.08592415 C0.31766458 292.37742475 -0.0977728 276.95433139 -8.91389894 261.03786814 C-10.62246376 257.83206167 -11.90957669 254.49988825 -13.25 251.125 C-17.51507867 241.23971425 -23.05644399 232.01827693 -28.44140625 222.71337891 C-30.25117607 219.56272386 -32.00918143 216.38582656 -33.76171875 213.203125 C-36.91984568 207.48525308 -40.21643872 201.96802175 -44.0625 196.6796875 C-46.07762284 193.8926426 -48.01566267 191.06180389 -49.94970703 188.21826172 C-55.10008705 180.65413731 -60.41132661 173.24914512 -66 166 C-66.62575928 165.18499023 -66.62575928 165.18499023 -67.26416016 164.35351562 C-80.96721207 146.54310209 -95.89565031 130.03715702 -111.75 114.125 C-112.63743896 113.23288818 -113.52487793 112.34077637 -114.43920898 111.42163086 C-119.46629826 106.40677867 -124.59757865 101.60613961 -130 97 C-131.15332328 95.99200508 -132.30569734 94.98292285 -133.45703125 93.97265625 C-139.51171406 88.70589945 -145.60548261 83.68188214 -152.171875 79.0546875 C-154.25759311 77.53937296 -156.26545368 76.00372147 -158.265625 74.3828125 C-165.01805123 68.91210565 -171.7815162 64.0676419 -179.37792969 59.81665039 C-180.94742432 58.92675446 -182.47845932 57.96960926 -184 57 C-184 56.34 -184 55.68 -184 55 C-185.175625 54.566875 -185.175625 54.566875 -186.375 54.125 C-189 53 -189 53 -191 51 C-191.27711011 46.99852997 -191.08528058 43.00818723 -191 39 C-176.78894035 35.19313161 -162.38765858 32.32798655 -147.97445631 29.40579128 C-144.43632392 28.68757688 -140.89907157 27.96505313 -137.36172485 27.24298096 C-130.64363015 25.87224167 -123.92485559 24.50486806 -117.20578349 23.13892865 C-105.3048263 20.71945062 -93.40499699 18.29443327 -81.50542569 15.86814928 C-77.91414322 15.13593954 -74.32277846 14.40413839 -70.73122406 13.67326355 C-57.30995963 10.94197433 -43.88961289 8.20854972 -30.49316406 5.35742188 C-29.57576509 5.16240208 -28.65836613 4.96738228 -27.71316719 4.76645279 C-23.64674431 3.90059203 -19.58187648 3.02831852 -15.51937866 2.14422607 C-14.15697761 1.85161223 -12.79456214 1.55906551 -11.43212891 1.26660156 C-10.29514557 1.01896057 -9.15816223 0.77131958 -7.98672485 0.51617432 C-5.23888835 0.04128537 -2.7771369 -0.03872899 0 0 Z " fill="#0E55BD" transform="translate(960,51)"/>
<path d="M0 0 C0.79341797 0.00215515 1.58683594 0.0043103 2.40429688 0.00653076 C14.26148465 0.05818501 25.75558164 0.42458909 37.3125 3.3125 C38.48377441 3.59456299 38.48377441 3.59456299 39.67871094 3.88232422 C67.23059263 10.72944073 89.71471221 25.10514372 110.3125 44.3125 C111.10269531 45.03695312 111.89289063 45.76140625 112.70703125 46.5078125 C140.25419831 72.76440146 156.27864334 109.96214086 157.59765625 147.84375 C158.42751695 189.61935422 146.43470439 228.98191845 117.640625 259.94140625 C117.20234375 260.39386719 116.7640625 260.84632813 116.3125 261.3125 C115.64275146 260.63243896 114.97300293 259.95237793 114.28295898 259.25170898 C111.54166305 256.51041305 108.71361282 253.87029723 105.87486267 251.23057556 C94.89351767 241.00745503 84.31635574 230.39875977 73.75 219.75 C70.25167699 216.22488702 66.74989463 212.70326106 63.24609375 209.18359375 C62.46576279 208.39496445 61.68543182 207.60633514 60.88145447 206.79380798 C57.46999652 203.36723133 54.04151704 200.02498975 50.37329102 196.87329102 C45.47089939 192.65178397 40.95701685 188.06271569 36.40625 183.46875 C34.99387068 182.0505835 33.58148839 180.63241993 32.16893768 179.21442413 C29.21937976 176.25183555 26.27443688 173.28465979 23.32867432 170.31829834 C20.89372894 167.86668969 18.45775184 165.41612669 16.01916504 162.96813965 C14.20029387 161.14181571 12.38367348 159.31324639 10.56970215 157.48205566 C6.91369831 153.81157959 3.25739923 150.20226914 -0.67382812 146.82617188 C-5.64165766 142.55761716 -10.20485612 137.90031492 -14.8125 133.25 C-15.7680937 132.28998625 -16.72399184 131.33027547 -17.68017578 130.37084961 C-21.19300592 126.84479527 -24.70030573 123.3132571 -28.20776367 119.78186035 C-31.18415517 116.78558792 -34.16269157 113.79147769 -37.14398193 110.80007935 C-38.52403133 109.4136466 -39.90097744 108.02412702 -41.27783203 106.63452148 C-45.60477888 102.2908478 -49.99287909 98.12559477 -54.64297485 94.13217163 C-58.84057451 90.39621708 -62.74580926 86.35381936 -66.69921875 82.36328125 C-68.12209593 80.93461842 -69.54497595 79.50595839 -70.96802235 78.0774641 C-73.43917995 75.59546037 -75.90698471 73.11012772 -78.375 70.625 C-81.33525991 67.64429464 -84.29613322 64.66421717 -87.26094055 61.68803406 C-89.09971603 59.8417587 -90.93623105 57.99322858 -92.77018738 56.14216614 C-93.60488052 55.30416977 -94.43957367 54.4661734 -95.29956055 53.6027832 C-96.02821823 52.8688887 -96.75687592 52.1349942 -97.50761414 51.37886047 C-99.71537634 49.21658562 -99.71537634 49.21658562 -102.46174622 47.1693573 C-103.19624496 46.55659439 -103.93074371 45.94383148 -104.6875 45.3125 C-104.6875 44.6525 -104.6875 43.9925 -104.6875 43.3125 C-105.3475 42.9825 -106.0075 42.6525 -106.6875 42.3125 C-78.65350933 13.11825986 -39.84246111 -0.19504032 0 0 Z " fill="#0C56BF" transform="translate(621.6875,442.6875)"/>
<path d="M0 0 C0.66 0.33 1.32 0.66 2 1 C1.67 1.66 1.34 2.32 1 3 C57.76 3 114.52 3 173 3 C173 3.33 173 3.66 173 4 C150.34776874 4.04666562 127.69554537 4.08196211 105.04327583 4.10362434 C94.52606731 4.11394864 84.00888861 4.12803092 73.49169922 4.15087891 C64.32776968 4.17077757 55.16386173 4.18370804 45.99991119 4.18817699 C41.14509718 4.19079036 36.29034495 4.19695671 31.43555069 4.21146011 C26.87036618 4.22498843 22.30526918 4.22923232 17.74006653 4.22621536 C16.06061707 4.22676766 14.38116482 4.23077331 12.70173264 4.23841095 C10.41645326 4.24829803 8.13150834 4.24599198 5.84622192 4.24050903 C4.56492968 4.24235262 3.28363743 4.24419621 1.96351814 4.24609566 C-1 4 -1 4 -3 2 C-2.01 1.34 -1.02 0.68 0 0 Z " fill="#693C7F" transform="translate(787,908)"/>
</svg>
