<!DOCTYPE svg PUBLIC "-//W3C//DTD SVG 1.1//EN" "http://www.w3.org/Graphics/SVG/1.1/DTD/svg11.dtd">
<!-- Uploaded to: SVG Repo, www.svgrepo.com, Transformed by: SVG Repo Mixer Tools -->
<svg width="213px" height="213px" viewBox="-2.4 -2.4 28.80 28.80" id="meteor-icon-kit__solid-desktop" fill="none" xmlns="http://www.w3.org/2000/svg" transform="rotate(0)matrix(1, 0, 0, 1, 0, 0)" stroke="#374151" stroke-width="1.56">
<g id="SVGRepo_bgCarrier" stroke-width="0"/>
<g id="SVGRepo_tracerCarrier" stroke-linecap="round" stroke-linejoin="round" stroke="#CCCCCC" stroke-width="0.048"/>
<g id="SVGRepo_iconCarrier">
<path fill-rule="evenodd" clip-rule="evenodd" d="M2 0H22C23.1046 0 24 0.89543 24 2V15C24 16.1046 23.1046 17 22 17H2C0.89543 17 0 16.1046 0 15V2C0 0.89543 0.89543 0 2 0zM16 18C16.5523 18 17 18.4477 17 19C17 19.5523 16.5523 20 16 20H8C7.44772 20 7 19.5523 7 19C7 18.4477 7.44772 18 8 18H16z" fill="#758CA3"/>
</g>
</svg>